<svg width="393" height="790" viewBox="0 0 393 790" fill="none" xmlns="http://www.w3.org/2000/svg">
<g clip-path="url(#clip0_984_419)">
<path d="M201.5 20.125H204.167C204.567 20.125 204.967 20.3417 205.233 20.5583L207.5 23.375L210.567 24.2417C211.1 24.35 211.5 24.7833 211.5 25.2167V29.875C211.5 30.4167 210.967 30.9583 210.167 30.9583H206.183" stroke="white" stroke-width="1.5" stroke-miterlimit="10" stroke-linecap="round" stroke-linejoin="round"/>
<path d="M203.5 33.1248C204.972 33.1248 206.166 32.1548 206.166 30.9582C206.166 29.7615 204.972 28.7915 203.5 28.7915C202.027 28.7915 200.833 29.7615 200.833 30.9582C200.833 32.1548 202.027 33.1248 203.5 33.1248Z" stroke="white" stroke-width="1.5" stroke-miterlimit="10" stroke-linecap="round" stroke-linejoin="round"/>
<path d="M201.5 29.5402V17.9583C201.5 17.3083 200.967 16.875 200.167 16.875H182.833C182.033 16.875 181.5 17.3083 181.5 17.9583V29.875C181.5 30.4167 182.033 30.9583 182.833 30.9583H184.83M200.826 30.9583H195.497" stroke="white" stroke-width="1.5" stroke-miterlimit="10" stroke-linecap="round" stroke-linejoin="round"/>
<path d="M187.5 33.1248C188.972 33.1248 190.166 32.1548 190.166 30.9582C190.166 29.7615 188.972 28.7915 187.5 28.7915C186.027 28.7915 184.833 29.7615 184.833 30.9582C184.833 32.1548 186.027 33.1248 187.5 33.1248Z" stroke="white" stroke-width="1.5" stroke-miterlimit="10" stroke-linecap="round" stroke-linejoin="round"/>
<path d="M192.834 33.1248C194.306 33.1248 195.5 32.1548 195.5 30.9582C195.5 29.7615 194.306 28.7915 192.834 28.7915C191.361 28.7915 190.167 29.7615 190.167 30.9582C190.167 32.1548 191.361 33.1248 192.834 33.1248Z" stroke="white" stroke-width="1.5" stroke-miterlimit="10" stroke-linecap="round" stroke-linejoin="round"/>
<path d="M187.5 16.875V24.4583" stroke="white" stroke-width="1.5" stroke-miterlimit="10" stroke-linecap="round" stroke-linejoin="round"/>
<path d="M194.167 16.875V24.4583" stroke="white" stroke-width="1.5" stroke-miterlimit="10" stroke-linecap="round" stroke-linejoin="round"/>
</g>
<path d="M142.606 54.2C142.783 54.172 142.979 54.1533 143.194 54.144C143.418 54.1253 143.646 54.116 143.88 54.116C144.122 54.1067 144.356 54.102 144.58 54.102C144.813 54.0927 145.028 54.088 145.224 54.088C146.008 54.088 146.684 54.2093 147.254 54.452C147.832 54.6947 148.308 55.0353 148.682 55.474C149.055 55.9033 149.33 56.4213 149.508 57.028C149.694 57.6347 149.788 58.302 149.788 59.03C149.788 59.6927 149.699 60.332 149.522 60.948C149.354 61.5547 149.083 62.096 148.71 62.572C148.336 63.0387 147.851 63.4167 147.254 63.706C146.656 63.986 145.933 64.126 145.084 64.126C144.934 64.126 144.738 64.1213 144.496 64.112C144.262 64.112 144.02 64.1027 143.768 64.084C143.516 64.0747 143.282 64.0653 143.068 64.056C142.853 64.0467 142.699 64.0327 142.606 64.014V54.2ZM145.252 55.124C145.13 55.124 144.995 55.124 144.846 55.124C144.706 55.124 144.566 55.1287 144.426 55.138C144.286 55.1473 144.155 55.1567 144.034 55.166C143.922 55.1753 143.833 55.1847 143.768 55.194V63.034C143.814 63.0433 143.903 63.0527 144.034 63.062C144.164 63.062 144.3 63.0667 144.44 63.076C144.58 63.076 144.715 63.0807 144.846 63.09C144.976 63.09 145.065 63.09 145.112 63.09C145.765 63.09 146.311 62.978 146.75 62.754C147.198 62.53 147.552 62.2313 147.814 61.858C148.084 61.4753 148.276 61.0413 148.388 60.556C148.5 60.0613 148.556 59.5527 148.556 59.03C148.556 58.5727 148.504 58.1153 148.402 57.658C148.299 57.1913 148.122 56.7713 147.87 56.398C147.618 56.0247 147.277 55.7213 146.848 55.488C146.428 55.2453 145.896 55.124 145.252 55.124ZM151.766 54.2H157.1V55.236H152.928V58.442H156.75V59.478H152.928V62.964H157.17V64H151.766V54.2ZM165.068 64H159.272V54.2H160.434V62.964H165.068V64ZM166.77 54.2H167.932V64H166.77V54.2ZM173.126 60.934L173.462 62.418H173.476L173.84 60.906L176.206 54.2H177.368L173.658 64.154H173.14L169.36 54.2H170.634L173.126 60.934ZM178.535 54.2H183.869V55.236H179.697V58.442H183.519V59.478H179.697V62.964H183.939V64H178.535V54.2ZM186.041 54.298C186.396 54.2327 186.802 54.1813 187.259 54.144C187.726 54.1067 188.151 54.088 188.533 54.088C188.963 54.088 189.369 54.1347 189.751 54.228C190.143 54.3213 190.484 54.4753 190.773 54.69C191.072 54.9047 191.31 55.1847 191.487 55.53C191.665 55.8753 191.753 56.2953 191.753 56.79C191.753 57.5553 191.543 58.176 191.123 58.652C190.703 59.128 190.171 59.4453 189.527 59.604L190.199 60.122L192.635 64H191.277L188.575 59.772L187.203 59.562V64H186.041V54.298ZM188.561 55.096C188.44 55.096 188.314 55.096 188.183 55.096C188.053 55.096 187.927 55.1007 187.805 55.11C187.684 55.1193 187.567 55.1287 187.455 55.138C187.353 55.1473 187.269 55.1613 187.203 55.18V58.792H188.295C188.939 58.792 189.471 58.6333 189.891 58.316C190.311 57.9987 190.521 57.504 190.521 56.832C190.521 56.328 190.349 55.9127 190.003 55.586C189.658 55.2593 189.177 55.096 188.561 55.096ZM194.633 54.2H195.795V64H194.633V54.2ZM198.442 54.2H203.776V55.236H199.604V58.442H203.426V59.478H199.604V62.964H203.846V64H198.442V54.2ZM210.372 61.508C210.372 61.116 210.255 60.7987 210.022 60.556C209.788 60.304 209.494 60.0847 209.14 59.898C208.794 59.702 208.416 59.52 208.006 59.352C207.595 59.184 207.212 58.9833 206.858 58.75C206.512 58.5073 206.223 58.2133 205.99 57.868C205.756 57.5133 205.64 57.0653 205.64 56.524C205.64 55.7587 205.906 55.152 206.438 54.704C206.97 54.256 207.726 54.032 208.706 54.032C209.275 54.032 209.793 54.074 210.26 54.158C210.726 54.242 211.09 54.3493 211.352 54.48L211.002 55.502C210.787 55.3993 210.47 55.3013 210.05 55.208C209.639 55.1147 209.172 55.068 208.65 55.068C208.034 55.068 207.572 55.208 207.264 55.488C206.956 55.7587 206.802 56.0807 206.802 56.454C206.802 56.818 206.918 57.1213 207.152 57.364C207.385 57.6067 207.674 57.826 208.02 58.022C208.374 58.2087 208.757 58.3953 209.168 58.582C209.578 58.7687 209.956 58.988 210.302 59.24C210.656 59.4827 210.95 59.7767 211.184 60.122C211.417 60.4673 211.534 60.8967 211.534 61.41C211.534 61.83 211.459 62.208 211.31 62.544C211.16 62.88 210.941 63.1693 210.652 63.412C210.362 63.6547 210.012 63.8413 209.602 63.972C209.191 64.1027 208.724 64.168 208.202 64.168C207.502 64.168 206.923 64.112 206.466 64C206.008 63.8973 205.654 63.7807 205.402 63.65L205.794 62.6C206.008 62.7213 206.326 62.8427 206.746 62.964C207.166 63.076 207.637 63.132 208.16 63.132C208.468 63.132 208.757 63.104 209.028 63.048C209.298 62.9827 209.532 62.8847 209.728 62.754C209.924 62.614 210.078 62.4413 210.19 62.236C210.311 62.0307 210.372 61.788 210.372 61.508ZM217.117 54.2C217.295 54.172 217.491 54.1533 217.705 54.144C217.929 54.1253 218.158 54.116 218.391 54.116C218.634 54.1067 218.867 54.102 219.091 54.102C219.325 54.0927 219.539 54.088 219.735 54.088C220.519 54.088 221.196 54.2093 221.765 54.452C222.344 54.6947 222.82 55.0353 223.193 55.474C223.567 55.9033 223.842 56.4213 224.019 57.028C224.206 57.6347 224.299 58.302 224.299 59.03C224.299 59.6927 224.211 60.332 224.033 60.948C223.865 61.5547 223.595 62.096 223.221 62.572C222.848 63.0387 222.363 63.4167 221.765 63.706C221.168 63.986 220.445 64.126 219.595 64.126C219.446 64.126 219.25 64.1213 219.007 64.112C218.774 64.112 218.531 64.1027 218.279 64.084C218.027 64.0747 217.794 64.0653 217.579 64.056C217.365 64.0467 217.211 64.0327 217.117 64.014V54.2ZM219.763 55.124C219.642 55.124 219.507 55.124 219.357 55.124C219.217 55.124 219.077 55.1287 218.937 55.138C218.797 55.1473 218.667 55.1567 218.545 55.166C218.433 55.1753 218.345 55.1847 218.279 55.194V63.034C218.326 63.0433 218.415 63.0527 218.545 63.062C218.676 63.062 218.811 63.0667 218.951 63.076C219.091 63.076 219.227 63.0807 219.357 63.09C219.488 63.09 219.577 63.09 219.623 63.09C220.277 63.09 220.823 62.978 221.261 62.754C221.709 62.53 222.064 62.2313 222.325 61.858C222.596 61.4753 222.787 61.0413 222.899 60.556C223.011 60.0613 223.067 59.5527 223.067 59.03C223.067 58.5727 223.016 58.1153 222.913 57.658C222.811 57.1913 222.633 56.7713 222.381 56.398C222.129 56.0247 221.789 55.7213 221.359 55.488C220.939 55.2453 220.407 55.124 219.763 55.124ZM225.872 59.1C225.872 57.4667 226.217 56.216 226.908 55.348C227.598 54.4707 228.583 54.032 229.862 54.032C230.552 54.032 231.15 54.1533 231.654 54.396C232.158 54.6387 232.573 54.984 232.9 55.432C233.236 55.8707 233.483 56.4027 233.642 57.028C233.8 57.644 233.88 58.3347 233.88 59.1C233.88 60.7333 233.53 61.9887 232.83 62.866C232.139 63.734 231.15 64.168 229.862 64.168C229.18 64.168 228.588 64.0467 228.084 63.804C227.589 63.5613 227.174 63.2207 226.838 62.782C226.511 62.334 226.268 61.802 226.11 61.186C225.951 60.5607 225.872 59.8653 225.872 59.1ZM227.104 59.1C227.104 59.6413 227.155 60.1547 227.258 60.64C227.37 61.1253 227.538 61.5547 227.762 61.928C227.986 62.292 228.27 62.586 228.616 62.81C228.97 63.0247 229.386 63.132 229.862 63.132C230.73 63.132 231.411 62.8053 231.906 62.152C232.4 61.4893 232.648 60.472 232.648 59.1C232.648 58.568 232.592 58.0593 232.48 57.574C232.377 57.0793 232.209 56.65 231.976 56.286C231.752 55.9127 231.462 55.6187 231.108 55.404C230.762 55.18 230.347 55.068 229.862 55.068C229.003 55.068 228.326 55.3993 227.832 56.062C227.346 56.7153 227.104 57.728 227.104 59.1ZM237.612 57.588L236.856 56.174H236.8L236.94 57.588V64H235.848V54.046H236.464L241.154 60.584L241.882 61.928H241.952L241.798 60.584V54.2H242.89V64.154H242.274L237.612 57.588ZM245.268 54.2H250.602V55.236H246.43V58.442H250.252V59.478H246.43V62.964H250.672V64H245.268V54.2Z" fill="white"/>
<path d="M169.011 96.77C169.011 97.83 168.811 98.92 168.411 100.04C168.031 101.14 167.521 102.25 166.881 103.37C166.261 104.49 165.561 105.59 164.781 106.67C164.001 107.73 163.221 108.74 162.441 109.7L160.971 110.99V111.11L162.891 110.78H169.431V113H157.491V112.13C157.931 111.67 158.461 111.1 159.081 110.42C159.701 109.74 160.341 108.99 161.001 108.17C161.681 107.33 162.341 106.45 162.981 105.53C163.641 104.59 164.231 103.64 164.751 102.68C165.291 101.72 165.721 100.77 166.041 99.83C166.361 98.89 166.521 98 166.521 97.16C166.521 96.18 166.241 95.37 165.681 94.73C165.121 94.07 164.271 93.74 163.131 93.74C162.371 93.74 161.631 93.9 160.911 94.22C160.191 94.52 159.571 94.87 159.051 95.27L158.061 93.56C158.761 92.96 159.591 92.49 160.551 92.15C161.511 91.81 162.541 91.64 163.641 91.64C164.501 91.64 165.261 91.77 165.921 92.03C166.581 92.27 167.141 92.62 167.601 93.08C168.061 93.54 168.411 94.09 168.651 94.73C168.891 95.35 169.011 96.03 169.011 96.77ZM173.268 102.5C173.268 98.9 173.848 96.19 175.008 94.37C176.188 92.55 177.898 91.64 180.138 91.64C182.558 91.64 184.308 92.54 185.388 94.34C186.488 96.12 187.038 98.84 187.038 102.5C187.038 106.1 186.448 108.81 185.268 110.63C184.108 112.45 182.398 113.36 180.138 113.36C177.758 113.36 176.018 112.41 174.918 110.51C173.818 108.61 173.268 105.94 173.268 102.5ZM175.758 102.5C175.758 103.8 175.838 104.99 175.998 106.07C176.178 107.13 176.448 108.05 176.808 108.83C177.168 109.59 177.618 110.19 178.158 110.63C178.718 111.05 179.378 111.26 180.138 111.26C181.658 111.26 182.768 110.56 183.468 109.16C184.188 107.74 184.548 105.52 184.548 102.5C184.548 101.22 184.468 100.04 184.308 98.96C184.168 97.88 183.918 96.95 183.558 96.17C183.218 95.39 182.768 94.79 182.208 94.37C181.648 93.95 180.958 93.74 180.138 93.74C178.638 93.74 177.528 94.45 176.808 95.87C176.108 97.29 175.758 99.5 175.758 102.5ZM204.046 106.55H200.506V113H198.166V106.55H188.926V105.56L198.886 91.67H200.506V104.45H204.046V106.55ZM198.166 97.91L198.466 95.45H198.376L197.326 97.49L193.096 103.22L191.656 104.69L193.756 104.45H198.166V97.91ZM211.694 111.26C212.374 111.26 213.004 111.16 213.584 110.96C214.164 110.76 214.664 110.47 215.084 110.09C215.504 109.69 215.834 109.22 216.074 108.68C216.314 108.14 216.434 107.55 216.434 106.91C216.434 105.51 216.014 104.47 215.174 103.79C214.354 103.11 213.214 102.77 211.754 102.77H209.534V101.9L213.854 95.24L215.234 93.92L213.284 94.22H207.344V92H218.054V92.87L213.284 100.04L212.234 100.91V100.97L213.254 100.76C214.054 100.78 214.794 100.93 215.474 101.21C216.154 101.47 216.744 101.86 217.244 102.38C217.744 102.88 218.134 103.49 218.414 104.21C218.694 104.91 218.834 105.71 218.834 106.61C218.834 107.69 218.644 108.65 218.264 109.49C217.884 110.33 217.364 111.04 216.704 111.62C216.064 112.18 215.304 112.61 214.424 112.91C213.544 113.21 212.614 113.36 211.634 113.36C210.734 113.36 209.924 113.29 209.204 113.15C208.484 113.01 207.854 112.83 207.314 112.61L207.944 110.48C208.404 110.7 208.944 110.89 209.564 111.05C210.204 111.19 210.914 111.26 211.694 111.26ZM227.411 111.26C228.791 111.26 229.931 110.86 230.831 110.06C231.731 109.26 232.181 108.1 232.181 106.58C232.181 105.12 231.731 104.03 230.831 103.31C229.951 102.59 228.731 102.23 227.171 102.23L224.651 102.38V92H234.011V94.22H226.901V100.19L228.191 100.13C230.171 100.15 231.731 100.7 232.871 101.78C234.011 102.86 234.581 104.41 234.581 106.43C234.581 107.55 234.391 108.55 234.011 109.43C233.631 110.29 233.111 111.01 232.451 111.59C231.811 112.17 231.051 112.61 230.171 112.91C229.291 113.21 228.351 113.36 227.351 113.36C226.451 113.36 225.691 113.31 225.071 113.21C224.451 113.11 223.871 112.96 223.331 112.76L223.961 110.72C224.421 110.9 224.911 111.04 225.431 111.14C225.971 111.22 226.631 111.26 227.411 111.26Z" fill="white"/>
<line x1="12" y1="144.17" x2="381" y2="144.17" stroke="white"/>
<g clip-path="url(#clip1_984_419)">
<path d="M201.5 176.795H204.167C204.567 176.795 204.967 177.012 205.233 177.228L207.5 180.045L210.567 180.912C211.1 181.02 211.5 181.453 211.5 181.887V186.545C211.5 187.087 210.967 187.628 210.167 187.628H206.183" stroke="white" stroke-width="1.5" stroke-miterlimit="10" stroke-linecap="round" stroke-linejoin="round"/>
<path d="M203.5 189.795C204.972 189.795 206.166 188.825 206.166 187.628C206.166 186.431 204.972 185.461 203.5 185.461C202.027 185.461 200.833 186.431 200.833 187.628C200.833 188.825 202.027 189.795 203.5 189.795Z" stroke="white" stroke-width="1.5" stroke-miterlimit="10" stroke-linecap="round" stroke-linejoin="round"/>
<path d="M201.5 186.21V174.628C201.5 173.978 200.967 173.545 200.167 173.545H182.833C182.033 173.545 181.5 173.978 181.5 174.628V186.545C181.5 187.087 182.033 187.628 182.833 187.628H184.83M200.826 187.628H195.497" stroke="white" stroke-width="1.5" stroke-miterlimit="10" stroke-linecap="round" stroke-linejoin="round"/>
<path d="M187.5 189.795C188.972 189.795 190.166 188.825 190.166 187.628C190.166 186.431 188.972 185.461 187.5 185.461C186.027 185.461 184.833 186.431 184.833 187.628C184.833 188.825 186.027 189.795 187.5 189.795Z" stroke="white" stroke-width="1.5" stroke-miterlimit="10" stroke-linecap="round" stroke-linejoin="round"/>
<path d="M192.834 189.795C194.306 189.795 195.5 188.825 195.5 187.628C195.5 186.431 194.306 185.461 192.834 185.461C191.361 185.461 190.167 186.431 190.167 187.628C190.167 188.825 191.361 189.795 192.834 189.795Z" stroke="white" stroke-width="1.5" stroke-miterlimit="10" stroke-linecap="round" stroke-linejoin="round"/>
<path d="M187.5 173.545V181.128" stroke="white" stroke-width="1.5" stroke-miterlimit="10" stroke-linecap="round" stroke-linejoin="round"/>
<path d="M194.167 173.545V181.128" stroke="white" stroke-width="1.5" stroke-miterlimit="10" stroke-linecap="round" stroke-linejoin="round"/>
</g>
<path d="M142.606 210.87C142.783 210.842 142.979 210.823 143.194 210.814C143.418 210.795 143.646 210.786 143.88 210.786C144.122 210.777 144.356 210.772 144.58 210.772C144.813 210.763 145.028 210.758 145.224 210.758C146.008 210.758 146.684 210.879 147.254 211.122C147.832 211.365 148.308 211.705 148.682 212.144C149.055 212.573 149.33 213.091 149.508 213.698C149.694 214.305 149.788 214.972 149.788 215.7C149.788 216.363 149.699 217.002 149.522 217.618C149.354 218.225 149.083 218.766 148.71 219.242C148.336 219.709 147.851 220.087 147.254 220.376C146.656 220.656 145.933 220.796 145.084 220.796C144.934 220.796 144.738 220.791 144.496 220.782C144.262 220.782 144.02 220.773 143.768 220.754C143.516 220.745 143.282 220.735 143.068 220.726C142.853 220.717 142.699 220.703 142.606 220.684V210.87ZM145.252 211.794C145.13 211.794 144.995 211.794 144.846 211.794C144.706 211.794 144.566 211.799 144.426 211.808C144.286 211.817 144.155 211.827 144.034 211.836C143.922 211.845 143.833 211.855 143.768 211.864V219.704C143.814 219.713 143.903 219.723 144.034 219.732C144.164 219.732 144.3 219.737 144.44 219.746C144.58 219.746 144.715 219.751 144.846 219.76C144.976 219.76 145.065 219.76 145.112 219.76C145.765 219.76 146.311 219.648 146.75 219.424C147.198 219.2 147.552 218.901 147.814 218.528C148.084 218.145 148.276 217.711 148.388 217.226C148.5 216.731 148.556 216.223 148.556 215.7C148.556 215.243 148.504 214.785 148.402 214.328C148.299 213.861 148.122 213.441 147.87 213.068C147.618 212.695 147.277 212.391 146.848 212.158C146.428 211.915 145.896 211.794 145.252 211.794ZM151.766 210.87H157.1V211.906H152.928V215.112H156.75V216.148H152.928V219.634H157.17V220.67H151.766V210.87ZM165.068 220.67H159.272V210.87H160.434V219.634H165.068V220.67ZM166.77 210.87H167.932V220.67H166.77V210.87ZM173.126 217.604L173.462 219.088H173.476L173.84 217.576L176.206 210.87H177.368L173.658 220.824H173.14L169.36 210.87H170.634L173.126 217.604ZM178.535 210.87H183.869V211.906H179.697V215.112H183.519V216.148H179.697V219.634H183.939V220.67H178.535V210.87ZM186.041 210.968C186.396 210.903 186.802 210.851 187.259 210.814C187.726 210.777 188.151 210.758 188.533 210.758C188.963 210.758 189.369 210.805 189.751 210.898C190.143 210.991 190.484 211.145 190.773 211.36C191.072 211.575 191.31 211.855 191.487 212.2C191.665 212.545 191.753 212.965 191.753 213.46C191.753 214.225 191.543 214.846 191.123 215.322C190.703 215.798 190.171 216.115 189.527 216.274L190.199 216.792L192.635 220.67H191.277L188.575 216.442L187.203 216.232V220.67H186.041V210.968ZM188.561 211.766C188.44 211.766 188.314 211.766 188.183 211.766C188.053 211.766 187.927 211.771 187.805 211.78C187.684 211.789 187.567 211.799 187.455 211.808C187.353 211.817 187.269 211.831 187.203 211.85V215.462H188.295C188.939 215.462 189.471 215.303 189.891 214.986C190.311 214.669 190.521 214.174 190.521 213.502C190.521 212.998 190.349 212.583 190.003 212.256C189.658 211.929 189.177 211.766 188.561 211.766ZM194.633 210.87H195.795V220.67H194.633V210.87ZM198.442 210.87H203.776V211.906H199.604V215.112H203.426V216.148H199.604V219.634H203.846V220.67H198.442V210.87ZM210.372 218.178C210.372 217.786 210.255 217.469 210.022 217.226C209.788 216.974 209.494 216.755 209.14 216.568C208.794 216.372 208.416 216.19 208.006 216.022C207.595 215.854 207.212 215.653 206.858 215.42C206.512 215.177 206.223 214.883 205.99 214.538C205.756 214.183 205.64 213.735 205.64 213.194C205.64 212.429 205.906 211.822 206.438 211.374C206.97 210.926 207.726 210.702 208.706 210.702C209.275 210.702 209.793 210.744 210.26 210.828C210.726 210.912 211.09 211.019 211.352 211.15L211.002 212.172C210.787 212.069 210.47 211.971 210.05 211.878C209.639 211.785 209.172 211.738 208.65 211.738C208.034 211.738 207.572 211.878 207.264 212.158C206.956 212.429 206.802 212.751 206.802 213.124C206.802 213.488 206.918 213.791 207.152 214.034C207.385 214.277 207.674 214.496 208.02 214.692C208.374 214.879 208.757 215.065 209.168 215.252C209.578 215.439 209.956 215.658 210.302 215.91C210.656 216.153 210.95 216.447 211.184 216.792C211.417 217.137 211.534 217.567 211.534 218.08C211.534 218.5 211.459 218.878 211.31 219.214C211.16 219.55 210.941 219.839 210.652 220.082C210.362 220.325 210.012 220.511 209.602 220.642C209.191 220.773 208.724 220.838 208.202 220.838C207.502 220.838 206.923 220.782 206.466 220.67C206.008 220.567 205.654 220.451 205.402 220.32L205.794 219.27C206.008 219.391 206.326 219.513 206.746 219.634C207.166 219.746 207.637 219.802 208.16 219.802C208.468 219.802 208.757 219.774 209.028 219.718C209.298 219.653 209.532 219.555 209.728 219.424C209.924 219.284 210.078 219.111 210.19 218.906C210.311 218.701 210.372 218.458 210.372 218.178ZM217.117 210.87C217.295 210.842 217.491 210.823 217.705 210.814C217.929 210.795 218.158 210.786 218.391 210.786C218.634 210.777 218.867 210.772 219.091 210.772C219.325 210.763 219.539 210.758 219.735 210.758C220.519 210.758 221.196 210.879 221.765 211.122C222.344 211.365 222.82 211.705 223.193 212.144C223.567 212.573 223.842 213.091 224.019 213.698C224.206 214.305 224.299 214.972 224.299 215.7C224.299 216.363 224.211 217.002 224.033 217.618C223.865 218.225 223.595 218.766 223.221 219.242C222.848 219.709 222.363 220.087 221.765 220.376C221.168 220.656 220.445 220.796 219.595 220.796C219.446 220.796 219.25 220.791 219.007 220.782C218.774 220.782 218.531 220.773 218.279 220.754C218.027 220.745 217.794 220.735 217.579 220.726C217.365 220.717 217.211 220.703 217.117 220.684V210.87ZM219.763 211.794C219.642 211.794 219.507 211.794 219.357 211.794C219.217 211.794 219.077 211.799 218.937 211.808C218.797 211.817 218.667 211.827 218.545 211.836C218.433 211.845 218.345 211.855 218.279 211.864V219.704C218.326 219.713 218.415 219.723 218.545 219.732C218.676 219.732 218.811 219.737 218.951 219.746C219.091 219.746 219.227 219.751 219.357 219.76C219.488 219.76 219.577 219.76 219.623 219.76C220.277 219.76 220.823 219.648 221.261 219.424C221.709 219.2 222.064 218.901 222.325 218.528C222.596 218.145 222.787 217.711 222.899 217.226C223.011 216.731 223.067 216.223 223.067 215.7C223.067 215.243 223.016 214.785 222.913 214.328C222.811 213.861 222.633 213.441 222.381 213.068C222.129 212.695 221.789 212.391 221.359 212.158C220.939 211.915 220.407 211.794 219.763 211.794ZM225.872 215.77C225.872 214.137 226.217 212.886 226.908 212.018C227.598 211.141 228.583 210.702 229.862 210.702C230.552 210.702 231.15 210.823 231.654 211.066C232.158 211.309 232.573 211.654 232.9 212.102C233.236 212.541 233.483 213.073 233.642 213.698C233.8 214.314 233.88 215.005 233.88 215.77C233.88 217.403 233.53 218.659 232.83 219.536C232.139 220.404 231.15 220.838 229.862 220.838C229.18 220.838 228.588 220.717 228.084 220.474C227.589 220.231 227.174 219.891 226.838 219.452C226.511 219.004 226.268 218.472 226.11 217.856C225.951 217.231 225.872 216.535 225.872 215.77ZM227.104 215.77C227.104 216.311 227.155 216.825 227.258 217.31C227.37 217.795 227.538 218.225 227.762 218.598C227.986 218.962 228.27 219.256 228.616 219.48C228.97 219.695 229.386 219.802 229.862 219.802C230.73 219.802 231.411 219.475 231.906 218.822C232.4 218.159 232.648 217.142 232.648 215.77C232.648 215.238 232.592 214.729 232.48 214.244C232.377 213.749 232.209 213.32 231.976 212.956C231.752 212.583 231.462 212.289 231.108 212.074C230.762 211.85 230.347 211.738 229.862 211.738C229.003 211.738 228.326 212.069 227.832 212.732C227.346 213.385 227.104 214.398 227.104 215.77ZM237.612 214.258L236.856 212.844H236.8L236.94 214.258V220.67H235.848V210.716H236.464L241.154 217.254L241.882 218.598H241.952L241.798 217.254V210.87H242.89V220.824H242.274L237.612 214.258ZM245.268 210.87H250.602V211.906H246.43V215.112H250.252V216.148H246.43V219.634H250.672V220.67H245.268V210.87Z" fill="white"/>
<path d="M169.011 253.44C169.011 254.5 168.811 255.59 168.411 256.71C168.031 257.81 167.521 258.92 166.881 260.04C166.261 261.16 165.561 262.26 164.781 263.34C164.001 264.4 163.221 265.41 162.441 266.37L160.971 267.66V267.78L162.891 267.45H169.431V269.67H157.491V268.8C157.931 268.34 158.461 267.77 159.081 267.09C159.701 266.41 160.341 265.66 161.001 264.84C161.681 264 162.341 263.12 162.981 262.2C163.641 261.26 164.231 260.31 164.751 259.35C165.291 258.39 165.721 257.44 166.041 256.5C166.361 255.56 166.521 254.67 166.521 253.83C166.521 252.85 166.241 252.04 165.681 251.4C165.121 250.74 164.271 250.41 163.131 250.41C162.371 250.41 161.631 250.57 160.911 250.89C160.191 251.19 159.571 251.54 159.051 251.94L158.061 250.23C158.761 249.63 159.591 249.16 160.551 248.82C161.511 248.48 162.541 248.31 163.641 248.31C164.501 248.31 165.261 248.44 165.921 248.7C166.581 248.94 167.141 249.29 167.601 249.75C168.061 250.21 168.411 250.76 168.651 251.4C168.891 252.02 169.011 252.7 169.011 253.44ZM173.268 259.17C173.268 255.57 173.848 252.86 175.008 251.04C176.188 249.22 177.898 248.31 180.138 248.31C182.558 248.31 184.308 249.21 185.388 251.01C186.488 252.79 187.038 255.51 187.038 259.17C187.038 262.77 186.448 265.48 185.268 267.3C184.108 269.12 182.398 270.03 180.138 270.03C177.758 270.03 176.018 269.08 174.918 267.18C173.818 265.28 173.268 262.61 173.268 259.17ZM175.758 259.17C175.758 260.47 175.838 261.66 175.998 262.74C176.178 263.8 176.448 264.72 176.808 265.5C177.168 266.26 177.618 266.86 178.158 267.3C178.718 267.72 179.378 267.93 180.138 267.93C181.658 267.93 182.768 267.23 183.468 265.83C184.188 264.41 184.548 262.19 184.548 259.17C184.548 257.89 184.468 256.71 184.308 255.63C184.168 254.55 183.918 253.62 183.558 252.84C183.218 252.06 182.768 251.46 182.208 251.04C181.648 250.62 180.958 250.41 180.138 250.41C178.638 250.41 177.528 251.12 176.808 252.54C176.108 253.96 175.758 256.17 175.758 259.17ZM204.046 263.22H200.506V269.67H198.166V263.22H188.926V262.23L198.886 248.34H200.506V261.12H204.046V263.22ZM198.166 254.58L198.466 252.12H198.376L197.326 254.16L193.096 259.89L191.656 261.36L193.756 261.12H198.166V254.58ZM211.694 267.93C212.374 267.93 213.004 267.83 213.584 267.63C214.164 267.43 214.664 267.14 215.084 266.76C215.504 266.36 215.834 265.89 216.074 265.35C216.314 264.81 216.434 264.22 216.434 263.58C216.434 262.18 216.014 261.14 215.174 260.46C214.354 259.78 213.214 259.44 211.754 259.44H209.534V258.57L213.854 251.91L215.234 250.59L213.284 250.89H207.344V248.67H218.054V249.54L213.284 256.71L212.234 257.58V257.64L213.254 257.43C214.054 257.45 214.794 257.6 215.474 257.88C216.154 258.14 216.744 258.53 217.244 259.05C217.744 259.55 218.134 260.16 218.414 260.88C218.694 261.58 218.834 262.38 218.834 263.28C218.834 264.36 218.644 265.32 218.264 266.16C217.884 267 217.364 267.71 216.704 268.29C216.064 268.85 215.304 269.28 214.424 269.58C213.544 269.88 212.614 270.03 211.634 270.03C210.734 270.03 209.924 269.96 209.204 269.82C208.484 269.68 207.854 269.5 207.314 269.28L207.944 267.15C208.404 267.37 208.944 267.56 209.564 267.72C210.204 267.86 210.914 267.93 211.694 267.93ZM227.411 267.93C228.791 267.93 229.931 267.53 230.831 266.73C231.731 265.93 232.181 264.77 232.181 263.25C232.181 261.79 231.731 260.7 230.831 259.98C229.951 259.26 228.731 258.9 227.171 258.9L224.651 259.05V248.67H234.011V250.89H226.901V256.86L228.191 256.8C230.171 256.82 231.731 257.37 232.871 258.45C234.011 259.53 234.581 261.08 234.581 263.1C234.581 264.22 234.391 265.22 234.011 266.1C233.631 266.96 233.111 267.68 232.451 268.26C231.811 268.84 231.051 269.28 230.171 269.58C229.291 269.88 228.351 270.03 227.351 270.03C226.451 270.03 225.691 269.98 225.071 269.88C224.451 269.78 223.871 269.63 223.331 269.43L223.961 267.39C224.421 267.57 224.911 267.71 225.431 267.81C225.971 267.89 226.631 267.93 227.411 267.93Z" fill="white"/>
<line x1="12" y1="300.84" x2="381" y2="300.84" stroke="white"/>
<g clip-path="url(#clip2_984_419)">
<path d="M201.5 333.465H204.167C204.567 333.465 204.967 333.681 205.233 333.898L207.5 336.715L210.567 337.582C211.1 337.69 211.5 338.123 211.5 338.557V343.215C211.5 343.757 210.967 344.298 210.167 344.298H206.183" stroke="white" stroke-width="1.5" stroke-miterlimit="10" stroke-linecap="round" stroke-linejoin="round"/>
<path d="M203.5 346.465C204.972 346.465 206.166 345.495 206.166 344.298C206.166 343.101 204.972 342.131 203.5 342.131C202.027 342.131 200.833 343.101 200.833 344.298C200.833 345.495 202.027 346.465 203.5 346.465Z" stroke="white" stroke-width="1.5" stroke-miterlimit="10" stroke-linecap="round" stroke-linejoin="round"/>
<path d="M201.5 342.88V331.298C201.5 330.648 200.967 330.215 200.167 330.215H182.833C182.033 330.215 181.5 330.648 181.5 331.298V343.215C181.5 343.757 182.033 344.298 182.833 344.298H184.83M200.826 344.298H195.497" stroke="white" stroke-width="1.5" stroke-miterlimit="10" stroke-linecap="round" stroke-linejoin="round"/>
<path d="M187.5 346.465C188.972 346.465 190.166 345.495 190.166 344.298C190.166 343.101 188.972 342.131 187.5 342.131C186.027 342.131 184.833 343.101 184.833 344.298C184.833 345.495 186.027 346.465 187.5 346.465Z" stroke="white" stroke-width="1.5" stroke-miterlimit="10" stroke-linecap="round" stroke-linejoin="round"/>
<path d="M192.834 346.465C194.306 346.465 195.5 345.495 195.5 344.298C195.5 343.101 194.306 342.131 192.834 342.131C191.361 342.131 190.167 343.101 190.167 344.298C190.167 345.495 191.361 346.465 192.834 346.465Z" stroke="white" stroke-width="1.5" stroke-miterlimit="10" stroke-linecap="round" stroke-linejoin="round"/>
<path d="M187.5 330.215V337.798" stroke="white" stroke-width="1.5" stroke-miterlimit="10" stroke-linecap="round" stroke-linejoin="round"/>
<path d="M194.167 330.215V337.798" stroke="white" stroke-width="1.5" stroke-miterlimit="10" stroke-linecap="round" stroke-linejoin="round"/>
</g>
<path d="M142.606 367.54C142.783 367.512 142.979 367.493 143.194 367.484C143.418 367.465 143.646 367.456 143.88 367.456C144.122 367.447 144.356 367.442 144.58 367.442C144.813 367.433 145.028 367.428 145.224 367.428C146.008 367.428 146.684 367.549 147.254 367.792C147.832 368.035 148.308 368.375 148.682 368.814C149.055 369.243 149.33 369.761 149.508 370.368C149.694 370.975 149.788 371.642 149.788 372.37C149.788 373.033 149.699 373.672 149.522 374.288C149.354 374.895 149.083 375.436 148.71 375.912C148.336 376.379 147.851 376.757 147.254 377.046C146.656 377.326 145.933 377.466 145.084 377.466C144.934 377.466 144.738 377.461 144.496 377.452C144.262 377.452 144.02 377.443 143.768 377.424C143.516 377.415 143.282 377.405 143.068 377.396C142.853 377.387 142.699 377.373 142.606 377.354V367.54ZM145.252 368.464C145.13 368.464 144.995 368.464 144.846 368.464C144.706 368.464 144.566 368.469 144.426 368.478C144.286 368.487 144.155 368.497 144.034 368.506C143.922 368.515 143.833 368.525 143.768 368.534V376.374C143.814 376.383 143.903 376.393 144.034 376.402C144.164 376.402 144.3 376.407 144.44 376.416C144.58 376.416 144.715 376.421 144.846 376.43C144.976 376.43 145.065 376.43 145.112 376.43C145.765 376.43 146.311 376.318 146.75 376.094C147.198 375.87 147.552 375.571 147.814 375.198C148.084 374.815 148.276 374.381 148.388 373.896C148.5 373.401 148.556 372.893 148.556 372.37C148.556 371.913 148.504 371.455 148.402 370.998C148.299 370.531 148.122 370.111 147.87 369.738C147.618 369.365 147.277 369.061 146.848 368.828C146.428 368.585 145.896 368.464 145.252 368.464ZM151.766 367.54H157.1V368.576H152.928V371.782H156.75V372.818H152.928V376.304H157.17V377.34H151.766V367.54ZM165.068 377.34H159.272V367.54H160.434V376.304H165.068V377.34ZM166.77 367.54H167.932V377.34H166.77V367.54ZM173.126 374.274L173.462 375.758H173.476L173.84 374.246L176.206 367.54H177.368L173.658 377.494H173.14L169.36 367.54H170.634L173.126 374.274ZM178.535 367.54H183.869V368.576H179.697V371.782H183.519V372.818H179.697V376.304H183.939V377.34H178.535V367.54ZM186.041 367.638C186.396 367.573 186.802 367.521 187.259 367.484C187.726 367.447 188.151 367.428 188.533 367.428C188.963 367.428 189.369 367.475 189.751 367.568C190.143 367.661 190.484 367.815 190.773 368.03C191.072 368.245 191.31 368.525 191.487 368.87C191.665 369.215 191.753 369.635 191.753 370.13C191.753 370.895 191.543 371.516 191.123 371.992C190.703 372.468 190.171 372.785 189.527 372.944L190.199 373.462L192.635 377.34H191.277L188.575 373.112L187.203 372.902V377.34H186.041V367.638ZM188.561 368.436C188.44 368.436 188.314 368.436 188.183 368.436C188.053 368.436 187.927 368.441 187.805 368.45C187.684 368.459 187.567 368.469 187.455 368.478C187.353 368.487 187.269 368.501 187.203 368.52V372.132H188.295C188.939 372.132 189.471 371.973 189.891 371.656C190.311 371.339 190.521 370.844 190.521 370.172C190.521 369.668 190.349 369.253 190.003 368.926C189.658 368.599 189.177 368.436 188.561 368.436ZM194.633 367.54H195.795V377.34H194.633V367.54ZM198.442 367.54H203.776V368.576H199.604V371.782H203.426V372.818H199.604V376.304H203.846V377.34H198.442V367.54ZM210.372 374.848C210.372 374.456 210.255 374.139 210.022 373.896C209.788 373.644 209.494 373.425 209.14 373.238C208.794 373.042 208.416 372.86 208.006 372.692C207.595 372.524 207.212 372.323 206.858 372.09C206.512 371.847 206.223 371.553 205.99 371.208C205.756 370.853 205.64 370.405 205.64 369.864C205.64 369.099 205.906 368.492 206.438 368.044C206.97 367.596 207.726 367.372 208.706 367.372C209.275 367.372 209.793 367.414 210.26 367.498C210.726 367.582 211.09 367.689 211.352 367.82L211.002 368.842C210.787 368.739 210.47 368.641 210.05 368.548C209.639 368.455 209.172 368.408 208.65 368.408C208.034 368.408 207.572 368.548 207.264 368.828C206.956 369.099 206.802 369.421 206.802 369.794C206.802 370.158 206.918 370.461 207.152 370.704C207.385 370.947 207.674 371.166 208.02 371.362C208.374 371.549 208.757 371.735 209.168 371.922C209.578 372.109 209.956 372.328 210.302 372.58C210.656 372.823 210.95 373.117 211.184 373.462C211.417 373.807 211.534 374.237 211.534 374.75C211.534 375.17 211.459 375.548 211.31 375.884C211.16 376.22 210.941 376.509 210.652 376.752C210.362 376.995 210.012 377.181 209.602 377.312C209.191 377.443 208.724 377.508 208.202 377.508C207.502 377.508 206.923 377.452 206.466 377.34C206.008 377.237 205.654 377.121 205.402 376.99L205.794 375.94C206.008 376.061 206.326 376.183 206.746 376.304C207.166 376.416 207.637 376.472 208.16 376.472C208.468 376.472 208.757 376.444 209.028 376.388C209.298 376.323 209.532 376.225 209.728 376.094C209.924 375.954 210.078 375.781 210.19 375.576C210.311 375.371 210.372 375.128 210.372 374.848ZM217.117 367.54C217.295 367.512 217.491 367.493 217.705 367.484C217.929 367.465 218.158 367.456 218.391 367.456C218.634 367.447 218.867 367.442 219.091 367.442C219.325 367.433 219.539 367.428 219.735 367.428C220.519 367.428 221.196 367.549 221.765 367.792C222.344 368.035 222.82 368.375 223.193 368.814C223.567 369.243 223.842 369.761 224.019 370.368C224.206 370.975 224.299 371.642 224.299 372.37C224.299 373.033 224.211 373.672 224.033 374.288C223.865 374.895 223.595 375.436 223.221 375.912C222.848 376.379 222.363 376.757 221.765 377.046C221.168 377.326 220.445 377.466 219.595 377.466C219.446 377.466 219.25 377.461 219.007 377.452C218.774 377.452 218.531 377.443 218.279 377.424C218.027 377.415 217.794 377.405 217.579 377.396C217.365 377.387 217.211 377.373 217.117 377.354V367.54ZM219.763 368.464C219.642 368.464 219.507 368.464 219.357 368.464C219.217 368.464 219.077 368.469 218.937 368.478C218.797 368.487 218.667 368.497 218.545 368.506C218.433 368.515 218.345 368.525 218.279 368.534V376.374C218.326 376.383 218.415 376.393 218.545 376.402C218.676 376.402 218.811 376.407 218.951 376.416C219.091 376.416 219.227 376.421 219.357 376.43C219.488 376.43 219.577 376.43 219.623 376.43C220.277 376.43 220.823 376.318 221.261 376.094C221.709 375.87 222.064 375.571 222.325 375.198C222.596 374.815 222.787 374.381 222.899 373.896C223.011 373.401 223.067 372.893 223.067 372.37C223.067 371.913 223.016 371.455 222.913 370.998C222.811 370.531 222.633 370.111 222.381 369.738C222.129 369.365 221.789 369.061 221.359 368.828C220.939 368.585 220.407 368.464 219.763 368.464ZM225.872 372.44C225.872 370.807 226.217 369.556 226.908 368.688C227.598 367.811 228.583 367.372 229.862 367.372C230.552 367.372 231.15 367.493 231.654 367.736C232.158 367.979 232.573 368.324 232.9 368.772C233.236 369.211 233.483 369.743 233.642 370.368C233.8 370.984 233.88 371.675 233.88 372.44C233.88 374.073 233.53 375.329 232.83 376.206C232.139 377.074 231.15 377.508 229.862 377.508C229.18 377.508 228.588 377.387 228.084 377.144C227.589 376.901 227.174 376.561 226.838 376.122C226.511 375.674 226.268 375.142 226.11 374.526C225.951 373.901 225.872 373.205 225.872 372.44ZM227.104 372.44C227.104 372.981 227.155 373.495 227.258 373.98C227.37 374.465 227.538 374.895 227.762 375.268C227.986 375.632 228.27 375.926 228.616 376.15C228.97 376.365 229.386 376.472 229.862 376.472C230.73 376.472 231.411 376.145 231.906 375.492C232.4 374.829 232.648 373.812 232.648 372.44C232.648 371.908 232.592 371.399 232.48 370.914C232.377 370.419 232.209 369.99 231.976 369.626C231.752 369.253 231.462 368.959 231.108 368.744C230.762 368.52 230.347 368.408 229.862 368.408C229.003 368.408 228.326 368.739 227.832 369.402C227.346 370.055 227.104 371.068 227.104 372.44ZM237.612 370.928L236.856 369.514H236.8L236.94 370.928V377.34H235.848V367.386H236.464L241.154 373.924L241.882 375.268H241.952L241.798 373.924V367.54H242.89V377.494H242.274L237.612 370.928ZM245.268 367.54H250.602V368.576H246.43V371.782H250.252V372.818H246.43V376.304H250.672V377.34H245.268V367.54Z" fill="white"/>
<path d="M169.011 410.11C169.011 411.17 168.811 412.26 168.411 413.38C168.031 414.48 167.521 415.59 166.881 416.71C166.261 417.83 165.561 418.93 164.781 420.01C164.001 421.07 163.221 422.08 162.441 423.04L160.971 424.33V424.45L162.891 424.12H169.431V426.34H157.491V425.47C157.931 425.01 158.461 424.44 159.081 423.76C159.701 423.08 160.341 422.33 161.001 421.51C161.681 420.67 162.341 419.79 162.981 418.87C163.641 417.93 164.231 416.98 164.751 416.02C165.291 415.06 165.721 414.11 166.041 413.17C166.361 412.23 166.521 411.34 166.521 410.5C166.521 409.52 166.241 408.71 165.681 408.07C165.121 407.41 164.271 407.08 163.131 407.08C162.371 407.08 161.631 407.24 160.911 407.56C160.191 407.86 159.571 408.21 159.051 408.61L158.061 406.9C158.761 406.3 159.591 405.83 160.551 405.49C161.511 405.15 162.541 404.98 163.641 404.98C164.501 404.98 165.261 405.11 165.921 405.37C166.581 405.61 167.141 405.96 167.601 406.42C168.061 406.88 168.411 407.43 168.651 408.07C168.891 408.69 169.011 409.37 169.011 410.11ZM173.268 415.84C173.268 412.24 173.848 409.53 175.008 407.71C176.188 405.89 177.898 404.98 180.138 404.98C182.558 404.98 184.308 405.88 185.388 407.68C186.488 409.46 187.038 412.18 187.038 415.84C187.038 419.44 186.448 422.15 185.268 423.97C184.108 425.79 182.398 426.7 180.138 426.7C177.758 426.7 176.018 425.75 174.918 423.85C173.818 421.95 173.268 419.28 173.268 415.84ZM175.758 415.84C175.758 417.14 175.838 418.33 175.998 419.41C176.178 420.47 176.448 421.39 176.808 422.17C177.168 422.93 177.618 423.53 178.158 423.97C178.718 424.39 179.378 424.6 180.138 424.6C181.658 424.6 182.768 423.9 183.468 422.5C184.188 421.08 184.548 418.86 184.548 415.84C184.548 414.56 184.468 413.38 184.308 412.3C184.168 411.22 183.918 410.29 183.558 409.51C183.218 408.73 182.768 408.13 182.208 407.71C181.648 407.29 180.958 407.08 180.138 407.08C178.638 407.08 177.528 407.79 176.808 409.21C176.108 410.63 175.758 412.84 175.758 415.84ZM204.046 419.89H200.506V426.34H198.166V419.89H188.926V418.9L198.886 405.01H200.506V417.79H204.046V419.89ZM198.166 411.25L198.466 408.79H198.376L197.326 410.83L193.096 416.56L191.656 418.03L193.756 417.79H198.166V411.25ZM211.694 424.6C212.374 424.6 213.004 424.5 213.584 424.3C214.164 424.1 214.664 423.81 215.084 423.43C215.504 423.03 215.834 422.56 216.074 422.02C216.314 421.48 216.434 420.89 216.434 420.25C216.434 418.85 216.014 417.81 215.174 417.13C214.354 416.45 213.214 416.11 211.754 416.11H209.534V415.24L213.854 408.58L215.234 407.26L213.284 407.56H207.344V405.34H218.054V406.21L213.284 413.38L212.234 414.25V414.31L213.254 414.1C214.054 414.12 214.794 414.27 215.474 414.55C216.154 414.81 216.744 415.2 217.244 415.72C217.744 416.22 218.134 416.83 218.414 417.55C218.694 418.25 218.834 419.05 218.834 419.95C218.834 421.03 218.644 421.99 218.264 422.83C217.884 423.67 217.364 424.38 216.704 424.96C216.064 425.52 215.304 425.95 214.424 426.25C213.544 426.55 212.614 426.7 211.634 426.7C210.734 426.7 209.924 426.63 209.204 426.49C208.484 426.35 207.854 426.17 207.314 425.95L207.944 423.82C208.404 424.04 208.944 424.23 209.564 424.39C210.204 424.53 210.914 424.6 211.694 424.6ZM227.411 424.6C228.791 424.6 229.931 424.2 230.831 423.4C231.731 422.6 232.181 421.44 232.181 419.92C232.181 418.46 231.731 417.37 230.831 416.65C229.951 415.93 228.731 415.57 227.171 415.57L224.651 415.72V405.34H234.011V407.56H226.901V413.53L228.191 413.47C230.171 413.49 231.731 414.04 232.871 415.12C234.011 416.2 234.581 417.75 234.581 419.77C234.581 420.89 234.391 421.89 234.011 422.77C233.631 423.63 233.111 424.35 232.451 424.93C231.811 425.51 231.051 425.95 230.171 426.25C229.291 426.55 228.351 426.7 227.351 426.7C226.451 426.7 225.691 426.65 225.071 426.55C224.451 426.45 223.871 426.3 223.331 426.1L223.961 424.06C224.421 424.24 224.911 424.38 225.431 424.48C225.971 424.56 226.631 424.6 227.411 424.6Z" fill="white"/>
<line x1="12" y1="457.51" x2="381" y2="457.51" stroke="white"/>
<g clip-path="url(#clip3_984_419)">
<path d="M201.5 490.135H204.167C204.567 490.135 204.967 490.351 205.233 490.568L207.5 493.385L210.567 494.251C211.1 494.36 211.5 494.793 211.5 495.226V499.885C211.5 500.426 210.967 500.968 210.167 500.968H206.183" stroke="white" stroke-width="1.5" stroke-miterlimit="10" stroke-linecap="round" stroke-linejoin="round"/>
<path d="M203.5 503.135C204.972 503.135 206.166 502.165 206.166 500.968C206.166 499.771 204.972 498.801 203.5 498.801C202.027 498.801 200.833 499.771 200.833 500.968C200.833 502.165 202.027 503.135 203.5 503.135Z" stroke="white" stroke-width="1.5" stroke-miterlimit="10" stroke-linecap="round" stroke-linejoin="round"/>
<path d="M201.5 499.55V487.968C201.5 487.318 200.967 486.885 200.167 486.885H182.833C182.033 486.885 181.5 487.318 181.5 487.968V499.885C181.5 500.426 182.033 500.968 182.833 500.968H184.83M200.826 500.968H195.497" stroke="white" stroke-width="1.5" stroke-miterlimit="10" stroke-linecap="round" stroke-linejoin="round"/>
<path d="M187.5 503.135C188.972 503.135 190.166 502.165 190.166 500.968C190.166 499.771 188.972 498.801 187.5 498.801C186.027 498.801 184.833 499.771 184.833 500.968C184.833 502.165 186.027 503.135 187.5 503.135Z" stroke="white" stroke-width="1.5" stroke-miterlimit="10" stroke-linecap="round" stroke-linejoin="round"/>
<path d="M192.834 503.135C194.306 503.135 195.5 502.165 195.5 500.968C195.5 499.771 194.306 498.801 192.834 498.801C191.361 498.801 190.167 499.771 190.167 500.968C190.167 502.165 191.361 503.135 192.834 503.135Z" stroke="white" stroke-width="1.5" stroke-miterlimit="10" stroke-linecap="round" stroke-linejoin="round"/>
<path d="M187.5 486.885V494.468" stroke="white" stroke-width="1.5" stroke-miterlimit="10" stroke-linecap="round" stroke-linejoin="round"/>
<path d="M194.167 486.885V494.468" stroke="white" stroke-width="1.5" stroke-miterlimit="10" stroke-linecap="round" stroke-linejoin="round"/>
</g>
<path d="M142.606 524.21C142.783 524.182 142.979 524.163 143.194 524.154C143.418 524.135 143.646 524.126 143.88 524.126C144.122 524.116 144.356 524.112 144.58 524.112C144.813 524.102 145.028 524.098 145.224 524.098C146.008 524.098 146.684 524.219 147.254 524.462C147.832 524.704 148.308 525.045 148.682 525.484C149.055 525.913 149.33 526.431 149.508 527.038C149.694 527.644 149.788 528.312 149.788 529.04C149.788 529.702 149.699 530.342 149.522 530.958C149.354 531.564 149.083 532.106 148.71 532.582C148.336 533.048 147.851 533.426 147.254 533.716C146.656 533.996 145.933 534.136 145.084 534.136C144.934 534.136 144.738 534.131 144.496 534.122C144.262 534.122 144.02 534.112 143.768 534.094C143.516 534.084 143.282 534.075 143.068 534.066C142.853 534.056 142.699 534.042 142.606 534.024V524.21ZM145.252 525.134C145.13 525.134 144.995 525.134 144.846 525.134C144.706 525.134 144.566 525.138 144.426 525.148C144.286 525.157 144.155 525.166 144.034 525.176C143.922 525.185 143.833 525.194 143.768 525.204V533.044C143.814 533.053 143.903 533.062 144.034 533.072C144.164 533.072 144.3 533.076 144.44 533.086C144.58 533.086 144.715 533.09 144.846 533.1C144.976 533.1 145.065 533.1 145.112 533.1C145.765 533.1 146.311 532.988 146.75 532.764C147.198 532.54 147.552 532.241 147.814 531.868C148.084 531.485 148.276 531.051 148.388 530.566C148.5 530.071 148.556 529.562 148.556 529.04C148.556 528.582 148.504 528.125 148.402 527.668C148.299 527.201 148.122 526.781 147.87 526.408C147.618 526.034 147.277 525.731 146.848 525.498C146.428 525.255 145.896 525.134 145.252 525.134ZM151.766 524.21H157.1V525.246H152.928V528.452H156.75V529.488H152.928V532.974H157.17V534.01H151.766V524.21ZM165.068 534.01H159.272V524.21H160.434V532.974H165.068V534.01ZM166.77 524.21H167.932V534.01H166.77V524.21ZM173.126 530.944L173.462 532.428H173.476L173.84 530.916L176.206 524.21H177.368L173.658 534.164H173.14L169.36 524.21H170.634L173.126 530.944ZM178.535 524.21H183.869V525.246H179.697V528.452H183.519V529.488H179.697V532.974H183.939V534.01H178.535V524.21ZM186.041 524.308C186.396 524.242 186.802 524.191 187.259 524.154C187.726 524.116 188.151 524.098 188.533 524.098C188.963 524.098 189.369 524.144 189.751 524.238C190.143 524.331 190.484 524.485 190.773 524.7C191.072 524.914 191.31 525.194 191.487 525.54C191.665 525.885 191.753 526.305 191.753 526.8C191.753 527.565 191.543 528.186 191.123 528.662C190.703 529.138 190.171 529.455 189.527 529.614L190.199 530.132L192.635 534.01H191.277L188.575 529.782L187.203 529.572V534.01H186.041V524.308ZM188.561 525.106C188.44 525.106 188.314 525.106 188.183 525.106C188.053 525.106 187.927 525.11 187.805 525.12C187.684 525.129 187.567 525.138 187.455 525.148C187.353 525.157 187.269 525.171 187.203 525.19V528.802H188.295C188.939 528.802 189.471 528.643 189.891 528.326C190.311 528.008 190.521 527.514 190.521 526.842C190.521 526.338 190.349 525.922 190.003 525.596C189.658 525.269 189.177 525.106 188.561 525.106ZM194.633 524.21H195.795V534.01H194.633V524.21ZM198.442 524.21H203.776V525.246H199.604V528.452H203.426V529.488H199.604V532.974H203.846V534.01H198.442V524.21ZM210.372 531.518C210.372 531.126 210.255 530.808 210.022 530.566C209.788 530.314 209.494 530.094 209.14 529.908C208.794 529.712 208.416 529.53 208.006 529.362C207.595 529.194 207.212 528.993 206.858 528.76C206.512 528.517 206.223 528.223 205.99 527.878C205.756 527.523 205.64 527.075 205.64 526.534C205.64 525.768 205.906 525.162 206.438 524.714C206.97 524.266 207.726 524.042 208.706 524.042C209.275 524.042 209.793 524.084 210.26 524.168C210.726 524.252 211.09 524.359 211.352 524.49L211.002 525.512C210.787 525.409 210.47 525.311 210.05 525.218C209.639 525.124 209.172 525.078 208.65 525.078C208.034 525.078 207.572 525.218 207.264 525.498C206.956 525.768 206.802 526.09 206.802 526.464C206.802 526.828 206.918 527.131 207.152 527.374C207.385 527.616 207.674 527.836 208.02 528.032C208.374 528.218 208.757 528.405 209.168 528.592C209.578 528.778 209.956 528.998 210.302 529.25C210.656 529.492 210.95 529.786 211.184 530.132C211.417 530.477 211.534 530.906 211.534 531.42C211.534 531.84 211.459 532.218 211.31 532.554C211.16 532.89 210.941 533.179 210.652 533.422C210.362 533.664 210.012 533.851 209.602 533.982C209.191 534.112 208.724 534.178 208.202 534.178C207.502 534.178 206.923 534.122 206.466 534.01C206.008 533.907 205.654 533.79 205.402 533.66L205.794 532.61C206.008 532.731 206.326 532.852 206.746 532.974C207.166 533.086 207.637 533.142 208.16 533.142C208.468 533.142 208.757 533.114 209.028 533.058C209.298 532.992 209.532 532.894 209.728 532.764C209.924 532.624 210.078 532.451 210.19 532.246C210.311 532.04 210.372 531.798 210.372 531.518ZM217.117 524.21C217.295 524.182 217.491 524.163 217.705 524.154C217.929 524.135 218.158 524.126 218.391 524.126C218.634 524.116 218.867 524.112 219.091 524.112C219.325 524.102 219.539 524.098 219.735 524.098C220.519 524.098 221.196 524.219 221.765 524.462C222.344 524.704 222.82 525.045 223.193 525.484C223.567 525.913 223.842 526.431 224.019 527.038C224.206 527.644 224.299 528.312 224.299 529.04C224.299 529.702 224.211 530.342 224.033 530.958C223.865 531.564 223.595 532.106 223.221 532.582C222.848 533.048 222.363 533.426 221.765 533.716C221.168 533.996 220.445 534.136 219.595 534.136C219.446 534.136 219.25 534.131 219.007 534.122C218.774 534.122 218.531 534.112 218.279 534.094C218.027 534.084 217.794 534.075 217.579 534.066C217.365 534.056 217.211 534.042 217.117 534.024V524.21ZM219.763 525.134C219.642 525.134 219.507 525.134 219.357 525.134C219.217 525.134 219.077 525.138 218.937 525.148C218.797 525.157 218.667 525.166 218.545 525.176C218.433 525.185 218.345 525.194 218.279 525.204V533.044C218.326 533.053 218.415 533.062 218.545 533.072C218.676 533.072 218.811 533.076 218.951 533.086C219.091 533.086 219.227 533.09 219.357 533.1C219.488 533.1 219.577 533.1 219.623 533.1C220.277 533.1 220.823 532.988 221.261 532.764C221.709 532.54 222.064 532.241 222.325 531.868C222.596 531.485 222.787 531.051 222.899 530.566C223.011 530.071 223.067 529.562 223.067 529.04C223.067 528.582 223.016 528.125 222.913 527.668C222.811 527.201 222.633 526.781 222.381 526.408C222.129 526.034 221.789 525.731 221.359 525.498C220.939 525.255 220.407 525.134 219.763 525.134ZM225.872 529.11C225.872 527.476 226.217 526.226 226.908 525.358C227.598 524.48 228.583 524.042 229.862 524.042C230.552 524.042 231.15 524.163 231.654 524.406C232.158 524.648 232.573 524.994 232.9 525.442C233.236 525.88 233.483 526.412 233.642 527.038C233.8 527.654 233.88 528.344 233.88 529.11C233.88 530.743 233.53 531.998 232.83 532.876C232.139 533.744 231.15 534.178 229.862 534.178C229.18 534.178 228.588 534.056 228.084 533.814C227.589 533.571 227.174 533.23 226.838 532.792C226.511 532.344 226.268 531.812 226.11 531.196C225.951 530.57 225.872 529.875 225.872 529.11ZM227.104 529.11C227.104 529.651 227.155 530.164 227.258 530.65C227.37 531.135 227.538 531.564 227.762 531.938C227.986 532.302 228.27 532.596 228.616 532.82C228.97 533.034 229.386 533.142 229.862 533.142C230.73 533.142 231.411 532.815 231.906 532.162C232.4 531.499 232.648 530.482 232.648 529.11C232.648 528.578 232.592 528.069 232.48 527.584C232.377 527.089 232.209 526.66 231.976 526.296C231.752 525.922 231.462 525.628 231.108 525.414C230.762 525.19 230.347 525.078 229.862 525.078C229.003 525.078 228.326 525.409 227.832 526.072C227.346 526.725 227.104 527.738 227.104 529.11ZM237.612 527.598L236.856 526.184H236.8L236.94 527.598V534.01H235.848V524.056H236.464L241.154 530.594L241.882 531.938H241.952L241.798 530.594V524.21H242.89V534.164H242.274L237.612 527.598ZM245.268 524.21H250.602V525.246H246.43V528.452H250.252V529.488H246.43V532.974H250.672V534.01H245.268V524.21Z" fill="white"/>
<path d="M169.011 566.78C169.011 567.84 168.811 568.93 168.411 570.05C168.031 571.15 167.521 572.26 166.881 573.38C166.261 574.5 165.561 575.6 164.781 576.68C164.001 577.74 163.221 578.75 162.441 579.71L160.971 581V581.12L162.891 580.79H169.431V583.01H157.491V582.14C157.931 581.68 158.461 581.11 159.081 580.43C159.701 579.75 160.341 579 161.001 578.18C161.681 577.34 162.341 576.46 162.981 575.54C163.641 574.6 164.231 573.65 164.751 572.69C165.291 571.73 165.721 570.78 166.041 569.84C166.361 568.9 166.521 568.01 166.521 567.17C166.521 566.19 166.241 565.38 165.681 564.74C165.121 564.08 164.271 563.75 163.131 563.75C162.371 563.75 161.631 563.91 160.911 564.23C160.191 564.53 159.571 564.88 159.051 565.28L158.061 563.57C158.761 562.97 159.591 562.5 160.551 562.16C161.511 561.82 162.541 561.65 163.641 561.65C164.501 561.65 165.261 561.78 165.921 562.04C166.581 562.28 167.141 562.63 167.601 563.09C168.061 563.55 168.411 564.1 168.651 564.74C168.891 565.36 169.011 566.04 169.011 566.78ZM173.268 572.51C173.268 568.91 173.848 566.2 175.008 564.38C176.188 562.56 177.898 561.65 180.138 561.65C182.558 561.65 184.308 562.55 185.388 564.35C186.488 566.13 187.038 568.85 187.038 572.51C187.038 576.11 186.448 578.82 185.268 580.64C184.108 582.46 182.398 583.37 180.138 583.37C177.758 583.37 176.018 582.42 174.918 580.52C173.818 578.62 173.268 575.95 173.268 572.51ZM175.758 572.51C175.758 573.81 175.838 575 175.998 576.08C176.178 577.14 176.448 578.06 176.808 578.84C177.168 579.6 177.618 580.2 178.158 580.64C178.718 581.06 179.378 581.27 180.138 581.27C181.658 581.27 182.768 580.57 183.468 579.17C184.188 577.75 184.548 575.53 184.548 572.51C184.548 571.23 184.468 570.05 184.308 568.97C184.168 567.89 183.918 566.96 183.558 566.18C183.218 565.4 182.768 564.8 182.208 564.38C181.648 563.96 180.958 563.75 180.138 563.75C178.638 563.75 177.528 564.46 176.808 565.88C176.108 567.3 175.758 569.51 175.758 572.51ZM204.046 576.56H200.506V583.01H198.166V576.56H188.926V575.57L198.886 561.68H200.506V574.46H204.046V576.56ZM198.166 567.92L198.466 565.46H198.376L197.326 567.5L193.096 573.23L191.656 574.7L193.756 574.46H198.166V567.92ZM211.694 581.27C212.374 581.27 213.004 581.17 213.584 580.97C214.164 580.77 214.664 580.48 215.084 580.1C215.504 579.7 215.834 579.23 216.074 578.69C216.314 578.15 216.434 577.56 216.434 576.92C216.434 575.52 216.014 574.48 215.174 573.8C214.354 573.12 213.214 572.78 211.754 572.78H209.534V571.91L213.854 565.25L215.234 563.93L213.284 564.23H207.344V562.01H218.054V562.88L213.284 570.05L212.234 570.92V570.98L213.254 570.77C214.054 570.79 214.794 570.94 215.474 571.22C216.154 571.48 216.744 571.87 217.244 572.39C217.744 572.89 218.134 573.5 218.414 574.22C218.694 574.92 218.834 575.72 218.834 576.62C218.834 577.7 218.644 578.66 218.264 579.5C217.884 580.34 217.364 581.05 216.704 581.63C216.064 582.19 215.304 582.62 214.424 582.92C213.544 583.22 212.614 583.37 211.634 583.37C210.734 583.37 209.924 583.3 209.204 583.16C208.484 583.02 207.854 582.84 207.314 582.62L207.944 580.49C208.404 580.71 208.944 580.9 209.564 581.06C210.204 581.2 210.914 581.27 211.694 581.27ZM227.411 581.27C228.791 581.27 229.931 580.87 230.831 580.07C231.731 579.27 232.181 578.11 232.181 576.59C232.181 575.13 231.731 574.04 230.831 573.32C229.951 572.6 228.731 572.24 227.171 572.24L224.651 572.39V562.01H234.011V564.23H226.901V570.2L228.191 570.14C230.171 570.16 231.731 570.71 232.871 571.79C234.011 572.87 234.581 574.42 234.581 576.44C234.581 577.56 234.391 578.56 234.011 579.44C233.631 580.3 233.111 581.02 232.451 581.6C231.811 582.18 231.051 582.62 230.171 582.92C229.291 583.22 228.351 583.37 227.351 583.37C226.451 583.37 225.691 583.32 225.071 583.22C224.451 583.12 223.871 582.97 223.331 582.77L223.961 580.73C224.421 580.91 224.911 581.05 225.431 581.15C225.971 581.23 226.631 581.27 227.411 581.27Z" fill="white"/>
<line x1="12" y1="614.18" x2="381" y2="614.18" stroke="white"/>
<g clip-path="url(#clip4_984_419)">
<path d="M201.5 646.805H204.167C204.567 646.805 204.967 647.022 205.233 647.238L207.5 650.055L210.567 650.922C211.1 651.03 211.5 651.464 211.5 651.897V656.555C211.5 657.097 210.967 657.639 210.167 657.639H206.183" stroke="white" stroke-width="1.5" stroke-miterlimit="10" stroke-linecap="round" stroke-linejoin="round"/>
<path d="M203.5 659.805C204.972 659.805 206.166 658.835 206.166 657.638C206.166 656.442 204.972 655.472 203.5 655.472C202.027 655.472 200.833 656.442 200.833 657.638C200.833 658.835 202.027 659.805 203.5 659.805Z" stroke="white" stroke-width="1.5" stroke-miterlimit="10" stroke-linecap="round" stroke-linejoin="round"/>
<path d="M201.5 656.22V644.639C201.5 643.989 200.967 643.555 200.167 643.555H182.833C182.033 643.555 181.5 643.989 181.5 644.639V656.555C181.5 657.097 182.033 657.639 182.833 657.639H184.83M200.826 657.639H195.497" stroke="white" stroke-width="1.5" stroke-miterlimit="10" stroke-linecap="round" stroke-linejoin="round"/>
<path d="M187.5 659.805C188.972 659.805 190.166 658.835 190.166 657.638C190.166 656.442 188.972 655.472 187.5 655.472C186.027 655.472 184.833 656.442 184.833 657.638C184.833 658.835 186.027 659.805 187.5 659.805Z" stroke="white" stroke-width="1.5" stroke-miterlimit="10" stroke-linecap="round" stroke-linejoin="round"/>
<path d="M192.834 659.805C194.306 659.805 195.5 658.835 195.5 657.638C195.5 656.442 194.306 655.472 192.834 655.472C191.361 655.472 190.167 656.442 190.167 657.638C190.167 658.835 191.361 659.805 192.834 659.805Z" stroke="white" stroke-width="1.5" stroke-miterlimit="10" stroke-linecap="round" stroke-linejoin="round"/>
<path d="M187.5 643.555V651.139" stroke="white" stroke-width="1.5" stroke-miterlimit="10" stroke-linecap="round" stroke-linejoin="round"/>
<path d="M194.167 643.555V651.139" stroke="white" stroke-width="1.5" stroke-miterlimit="10" stroke-linecap="round" stroke-linejoin="round"/>
</g>
<path d="M142.606 680.88C142.783 680.852 142.979 680.834 143.194 680.824C143.418 680.806 143.646 680.796 143.88 680.796C144.122 680.787 144.356 680.782 144.58 680.782C144.813 680.773 145.028 680.768 145.224 680.768C146.008 680.768 146.684 680.89 147.254 681.132C147.832 681.375 148.308 681.716 148.682 682.154C149.055 682.584 149.33 683.102 149.508 683.708C149.694 684.315 149.788 684.982 149.788 685.71C149.788 686.373 149.699 687.012 149.522 687.628C149.354 688.235 149.083 688.776 148.71 689.252C148.336 689.719 147.851 690.097 147.254 690.386C146.656 690.666 145.933 690.806 145.084 690.806C144.934 690.806 144.738 690.802 144.496 690.792C144.262 690.792 144.02 690.783 143.768 690.764C143.516 690.755 143.282 690.746 143.068 690.736C142.853 690.727 142.699 690.713 142.606 690.694V680.88ZM145.252 681.804C145.13 681.804 144.995 681.804 144.846 681.804C144.706 681.804 144.566 681.809 144.426 681.818C144.286 681.828 144.155 681.837 144.034 681.846C143.922 681.856 143.833 681.865 143.768 681.874V689.714C143.814 689.724 143.903 689.733 144.034 689.742C144.164 689.742 144.3 689.747 144.44 689.756C144.58 689.756 144.715 689.761 144.846 689.77C144.976 689.77 145.065 689.77 145.112 689.77C145.765 689.77 146.311 689.658 146.75 689.434C147.198 689.21 147.552 688.912 147.814 688.538C148.084 688.156 148.276 687.722 148.388 687.236C148.5 686.742 148.556 686.233 148.556 685.71C148.556 685.253 148.504 684.796 148.402 684.338C148.299 683.872 148.122 683.452 147.87 683.078C147.618 682.705 147.277 682.402 146.848 682.168C146.428 681.926 145.896 681.804 145.252 681.804ZM151.766 680.88H157.1V681.916H152.928V685.122H156.75V686.158H152.928V689.644H157.17V690.68H151.766V680.88ZM165.068 690.68H159.272V680.88H160.434V689.644H165.068V690.68ZM166.77 680.88H167.932V690.68H166.77V680.88ZM173.126 687.614L173.462 689.098H173.476L173.84 687.586L176.206 680.88H177.368L173.658 690.834H173.14L169.36 680.88H170.634L173.126 687.614ZM178.535 680.88H183.869V681.916H179.697V685.122H183.519V686.158H179.697V689.644H183.939V690.68H178.535V680.88ZM186.041 680.978C186.396 680.913 186.802 680.862 187.259 680.824C187.726 680.787 188.151 680.768 188.533 680.768C188.963 680.768 189.369 680.815 189.751 680.908C190.143 681.002 190.484 681.156 190.773 681.37C191.072 681.585 191.31 681.865 191.487 682.21C191.665 682.556 191.753 682.976 191.753 683.47C191.753 684.236 191.543 684.856 191.123 685.332C190.703 685.808 190.171 686.126 189.527 686.284L190.199 686.802L192.635 690.68H191.277L188.575 686.452L187.203 686.242V690.68H186.041V680.978ZM188.561 681.776C188.44 681.776 188.314 681.776 188.183 681.776C188.053 681.776 187.927 681.781 187.805 681.79C187.684 681.8 187.567 681.809 187.455 681.818C187.353 681.828 187.269 681.842 187.203 681.86V685.472H188.295C188.939 685.472 189.471 685.314 189.891 684.996C190.311 684.679 190.521 684.184 190.521 683.512C190.521 683.008 190.349 682.593 190.003 682.266C189.658 681.94 189.177 681.776 188.561 681.776ZM194.633 680.88H195.795V690.68H194.633V680.88ZM198.442 680.88H203.776V681.916H199.604V685.122H203.426V686.158H199.604V689.644H203.846V690.68H198.442V680.88ZM210.372 688.188C210.372 687.796 210.255 687.479 210.022 687.236C209.788 686.984 209.494 686.765 209.14 686.578C208.794 686.382 208.416 686.2 208.006 686.032C207.595 685.864 207.212 685.664 206.858 685.43C206.512 685.188 206.223 684.894 205.99 684.548C205.756 684.194 205.64 683.746 205.64 683.204C205.64 682.439 205.906 681.832 206.438 681.384C206.97 680.936 207.726 680.712 208.706 680.712C209.275 680.712 209.793 680.754 210.26 680.838C210.726 680.922 211.09 681.03 211.352 681.16L211.002 682.182C210.787 682.08 210.47 681.982 210.05 681.888C209.639 681.795 209.172 681.748 208.65 681.748C208.034 681.748 207.572 681.888 207.264 682.168C206.956 682.439 206.802 682.761 206.802 683.134C206.802 683.498 206.918 683.802 207.152 684.044C207.385 684.287 207.674 684.506 208.02 684.702C208.374 684.889 208.757 685.076 209.168 685.262C209.578 685.449 209.956 685.668 210.302 685.92C210.656 686.163 210.95 686.457 211.184 686.802C211.417 687.148 211.534 687.577 211.534 688.09C211.534 688.51 211.459 688.888 211.31 689.224C211.16 689.56 210.941 689.85 210.652 690.092C210.362 690.335 210.012 690.522 209.602 690.652C209.191 690.783 208.724 690.848 208.202 690.848C207.502 690.848 206.923 690.792 206.466 690.68C206.008 690.578 205.654 690.461 205.402 690.33L205.794 689.28C206.008 689.402 206.326 689.523 206.746 689.644C207.166 689.756 207.637 689.812 208.16 689.812C208.468 689.812 208.757 689.784 209.028 689.728C209.298 689.663 209.532 689.565 209.728 689.434C209.924 689.294 210.078 689.122 210.19 688.916C210.311 688.711 210.372 688.468 210.372 688.188ZM217.117 680.88C217.295 680.852 217.491 680.834 217.705 680.824C217.929 680.806 218.158 680.796 218.391 680.796C218.634 680.787 218.867 680.782 219.091 680.782C219.325 680.773 219.539 680.768 219.735 680.768C220.519 680.768 221.196 680.89 221.765 681.132C222.344 681.375 222.82 681.716 223.193 682.154C223.567 682.584 223.842 683.102 224.019 683.708C224.206 684.315 224.299 684.982 224.299 685.71C224.299 686.373 224.211 687.012 224.033 687.628C223.865 688.235 223.595 688.776 223.221 689.252C222.848 689.719 222.363 690.097 221.765 690.386C221.168 690.666 220.445 690.806 219.595 690.806C219.446 690.806 219.25 690.802 219.007 690.792C218.774 690.792 218.531 690.783 218.279 690.764C218.027 690.755 217.794 690.746 217.579 690.736C217.365 690.727 217.211 690.713 217.117 690.694V680.88ZM219.763 681.804C219.642 681.804 219.507 681.804 219.357 681.804C219.217 681.804 219.077 681.809 218.937 681.818C218.797 681.828 218.667 681.837 218.545 681.846C218.433 681.856 218.345 681.865 218.279 681.874V689.714C218.326 689.724 218.415 689.733 218.545 689.742C218.676 689.742 218.811 689.747 218.951 689.756C219.091 689.756 219.227 689.761 219.357 689.77C219.488 689.77 219.577 689.77 219.623 689.77C220.277 689.77 220.823 689.658 221.261 689.434C221.709 689.21 222.064 688.912 222.325 688.538C222.596 688.156 222.787 687.722 222.899 687.236C223.011 686.742 223.067 686.233 223.067 685.71C223.067 685.253 223.016 684.796 222.913 684.338C222.811 683.872 222.633 683.452 222.381 683.078C222.129 682.705 221.789 682.402 221.359 682.168C220.939 681.926 220.407 681.804 219.763 681.804ZM225.872 685.78C225.872 684.147 226.217 682.896 226.908 682.028C227.598 681.151 228.583 680.712 229.862 680.712C230.552 680.712 231.15 680.834 231.654 681.076C232.158 681.319 232.573 681.664 232.9 682.112C233.236 682.551 233.483 683.083 233.642 683.708C233.8 684.324 233.88 685.015 233.88 685.78C233.88 687.414 233.53 688.669 232.83 689.546C232.139 690.414 231.15 690.848 229.862 690.848C229.18 690.848 228.588 690.727 228.084 690.484C227.589 690.242 227.174 689.901 226.838 689.462C226.511 689.014 226.268 688.482 226.11 687.866C225.951 687.241 225.872 686.546 225.872 685.78ZM227.104 685.78C227.104 686.322 227.155 686.835 227.258 687.32C227.37 687.806 227.538 688.235 227.762 688.608C227.986 688.972 228.27 689.266 228.616 689.49C228.97 689.705 229.386 689.812 229.862 689.812C230.73 689.812 231.411 689.486 231.906 688.832C232.4 688.17 232.648 687.152 232.648 685.78C232.648 685.248 232.592 684.74 232.48 684.254C232.377 683.76 232.209 683.33 231.976 682.966C231.752 682.593 231.462 682.299 231.108 682.084C230.762 681.86 230.347 681.748 229.862 681.748C229.003 681.748 228.326 682.08 227.832 682.742C227.346 683.396 227.104 684.408 227.104 685.78ZM237.612 684.268L236.856 682.854H236.8L236.94 684.268V690.68H235.848V680.726H236.464L241.154 687.264L241.882 688.608H241.952L241.798 687.264V680.88H242.89V690.834H242.274L237.612 684.268ZM245.268 680.88H250.602V681.916H246.43V685.122H250.252V686.158H246.43V689.644H250.672V690.68H245.268V680.88Z" fill="white"/>
<path d="M169.011 723.45C169.011 724.51 168.811 725.6 168.411 726.72C168.031 727.82 167.521 728.93 166.881 730.05C166.261 731.17 165.561 732.27 164.781 733.35C164.001 734.41 163.221 735.42 162.441 736.38L160.971 737.67V737.79L162.891 737.46H169.431V739.68H157.491V738.81C157.931 738.35 158.461 737.78 159.081 737.1C159.701 736.42 160.341 735.67 161.001 734.85C161.681 734.01 162.341 733.13 162.981 732.21C163.641 731.27 164.231 730.32 164.751 729.36C165.291 728.4 165.721 727.45 166.041 726.51C166.361 725.57 166.521 724.68 166.521 723.84C166.521 722.86 166.241 722.05 165.681 721.41C165.121 720.75 164.271 720.42 163.131 720.42C162.371 720.42 161.631 720.58 160.911 720.9C160.191 721.2 159.571 721.55 159.051 721.95L158.061 720.24C158.761 719.64 159.591 719.17 160.551 718.83C161.511 718.49 162.541 718.32 163.641 718.32C164.501 718.32 165.261 718.45 165.921 718.71C166.581 718.95 167.141 719.3 167.601 719.76C168.061 720.22 168.411 720.77 168.651 721.41C168.891 722.03 169.011 722.71 169.011 723.45ZM173.268 729.18C173.268 725.58 173.848 722.87 175.008 721.05C176.188 719.23 177.898 718.32 180.138 718.32C182.558 718.32 184.308 719.22 185.388 721.02C186.488 722.8 187.038 725.52 187.038 729.18C187.038 732.78 186.448 735.49 185.268 737.31C184.108 739.13 182.398 740.04 180.138 740.04C177.758 740.04 176.018 739.09 174.918 737.19C173.818 735.29 173.268 732.62 173.268 729.18ZM175.758 729.18C175.758 730.48 175.838 731.67 175.998 732.75C176.178 733.81 176.448 734.73 176.808 735.51C177.168 736.27 177.618 736.87 178.158 737.31C178.718 737.73 179.378 737.94 180.138 737.94C181.658 737.94 182.768 737.24 183.468 735.84C184.188 734.42 184.548 732.2 184.548 729.18C184.548 727.9 184.468 726.72 184.308 725.64C184.168 724.56 183.918 723.63 183.558 722.85C183.218 722.07 182.768 721.47 182.208 721.05C181.648 720.63 180.958 720.42 180.138 720.42C178.638 720.42 177.528 721.13 176.808 722.55C176.108 723.97 175.758 726.18 175.758 729.18ZM204.046 733.23H200.506V739.68H198.166V733.23H188.926V732.24L198.886 718.35H200.506V731.13H204.046V733.23ZM198.166 724.59L198.466 722.13H198.376L197.326 724.17L193.096 729.9L191.656 731.37L193.756 731.13H198.166V724.59ZM211.694 737.94C212.374 737.94 213.004 737.84 213.584 737.64C214.164 737.44 214.664 737.15 215.084 736.77C215.504 736.37 215.834 735.9 216.074 735.36C216.314 734.82 216.434 734.23 216.434 733.59C216.434 732.19 216.014 731.15 215.174 730.47C214.354 729.79 213.214 729.45 211.754 729.45H209.534V728.58L213.854 721.92L215.234 720.6L213.284 720.9H207.344V718.68H218.054V719.55L213.284 726.72L212.234 727.59V727.65L213.254 727.44C214.054 727.46 214.794 727.61 215.474 727.89C216.154 728.15 216.744 728.54 217.244 729.06C217.744 729.56 218.134 730.17 218.414 730.89C218.694 731.59 218.834 732.39 218.834 733.29C218.834 734.37 218.644 735.33 218.264 736.17C217.884 737.01 217.364 737.72 216.704 738.3C216.064 738.86 215.304 739.29 214.424 739.59C213.544 739.89 212.614 740.04 211.634 740.04C210.734 740.04 209.924 739.97 209.204 739.83C208.484 739.69 207.854 739.51 207.314 739.29L207.944 737.16C208.404 737.38 208.944 737.57 209.564 737.73C210.204 737.87 210.914 737.94 211.694 737.94ZM227.411 737.94C228.791 737.94 229.931 737.54 230.831 736.74C231.731 735.94 232.181 734.78 232.181 733.26C232.181 731.8 231.731 730.71 230.831 729.99C229.951 729.27 228.731 728.91 227.171 728.91L224.651 729.06V718.68H234.011V720.9H226.901V726.87L228.191 726.81C230.171 726.83 231.731 727.38 232.871 728.46C234.011 729.54 234.581 731.09 234.581 733.11C234.581 734.23 234.391 735.23 234.011 736.11C233.631 736.97 233.111 737.69 232.451 738.27C231.811 738.85 231.051 739.29 230.171 739.59C229.291 739.89 228.351 740.04 227.351 740.04C226.451 740.04 225.691 739.99 225.071 739.89C224.451 739.79 223.871 739.64 223.331 739.44L223.961 737.4C224.421 737.58 224.911 737.72 225.431 737.82C225.971 737.9 226.631 737.94 227.411 737.94Z" fill="white"/>
<line x1="12" y1="770.85" x2="381" y2="770.85" stroke="white"/>
<defs>
<clipPath id="clip0_984_419">
<rect width="32" height="26" fill="white" transform="translate(180.5 12)"/>
</clipPath>
<clipPath id="clip1_984_419">
<rect width="32" height="26" fill="white" transform="translate(180.5 168.67)"/>
</clipPath>
<clipPath id="clip2_984_419">
<rect width="32" height="26" fill="white" transform="translate(180.5 325.34)"/>
</clipPath>
<clipPath id="clip3_984_419">
<rect width="32" height="26" fill="white" transform="translate(180.5 482.01)"/>
</clipPath>
<clipPath id="clip4_984_419">
<rect width="32" height="26" fill="white" transform="translate(180.5 638.68)"/>
</clipPath>
</defs>
</svg>
