<svg width="256" height="114" viewBox="0 0 256 114" fill="none" xmlns="http://www.w3.org/2000/svg">
<g filter="url(#filter0_d_1138_2209)">
<rect x="8.5" y="4.5" width="239" height="97" rx="7.5" stroke="#D4D4D4" shape-rendering="crispEdges"/>
<path d="M18.5795 33.2102V32.2727H25.125V33.2102H22.3807V41H21.3239V33.2102H18.5795ZM28.3295 41.1364C27.7386 41.1364 27.2202 40.9957 26.7741 40.7145C26.331 40.4332 25.9844 40.0398 25.7344 39.5341C25.4872 39.0284 25.3636 38.4375 25.3636 37.7614C25.3636 37.0795 25.4872 36.4844 25.7344 35.9759C25.9844 35.4673 26.331 35.0724 26.7741 34.7912C27.2202 34.5099 27.7386 34.3693 28.3295 34.3693C28.9205 34.3693 29.4375 34.5099 29.8807 34.7912C30.3267 35.0724 30.6733 35.4673 30.9205 35.9759C31.1705 36.4844 31.2955 37.0795 31.2955 37.7614C31.2955 38.4375 31.1705 39.0284 30.9205 39.5341C30.6733 40.0398 30.3267 40.4332 29.8807 40.7145C29.4375 40.9957 28.9205 41.1364 28.3295 41.1364ZM28.3295 40.233C28.7784 40.233 29.1477 40.1179 29.4375 39.8878C29.7273 39.6577 29.9418 39.3551 30.081 38.9801C30.2202 38.6051 30.2898 38.1989 30.2898 37.7614C30.2898 37.3239 30.2202 36.9162 30.081 36.5384C29.9418 36.1605 29.7273 35.8551 29.4375 35.6222C29.1477 35.3892 28.7784 35.2727 28.3295 35.2727C27.8807 35.2727 27.5114 35.3892 27.2216 35.6222C26.9318 35.8551 26.7173 36.1605 26.5781 36.5384C26.4389 36.9162 26.3693 37.3239 26.3693 37.7614C26.3693 38.1989 26.4389 38.6051 26.5781 38.9801C26.7173 39.3551 26.9318 39.6577 27.2216 39.8878C27.5114 40.1179 27.8807 40.233 28.3295 40.233ZM35.6772 34.4545V35.3068H32.2852V34.4545H35.6772ZM33.2738 32.8864H34.2795V39.125C34.2795 39.4091 34.3207 39.6222 34.4031 39.7642C34.4883 39.9034 34.5962 39.9972 34.7269 40.0455C34.8604 40.0909 35.0011 40.1136 35.1488 40.1136C35.2596 40.1136 35.3505 40.108 35.4215 40.0966C35.4925 40.0824 35.5494 40.071 35.592 40.0625L35.7965 40.9659C35.7283 40.9915 35.6332 41.017 35.511 41.0426C35.3888 41.071 35.234 41.0852 35.0465 41.0852C34.7624 41.0852 34.484 41.0241 34.2113 40.902C33.9414 40.7798 33.717 40.5938 33.538 40.3438C33.3619 40.0938 33.2738 39.7784 33.2738 39.3977V32.8864ZM39.1161 41.1534C38.7013 41.1534 38.3249 41.0753 37.9869 40.919C37.6488 40.7599 37.3803 40.5312 37.1815 40.233C36.9826 39.9318 36.8832 39.5682 36.8832 39.142C36.8832 38.767 36.957 38.4631 37.1048 38.2301C37.2525 37.9943 37.4499 37.8097 37.6971 37.6761C37.9442 37.5426 38.217 37.4432 38.5153 37.3778C38.8164 37.3097 39.119 37.2557 39.4229 37.2159C39.8207 37.1648 40.1431 37.1264 40.3903 37.1009C40.6403 37.0724 40.8221 37.0256 40.9357 36.9602C41.0522 36.8949 41.1104 36.7812 41.1104 36.6193V36.5852C41.1104 36.1648 40.9954 35.8381 40.7653 35.6051C40.538 35.3722 40.1928 35.2557 39.7298 35.2557C39.2496 35.2557 38.8732 35.3608 38.6005 35.571C38.3278 35.7812 38.136 36.0057 38.0252 36.2443L37.0707 35.9034C37.2411 35.5057 37.4684 35.196 37.7525 34.9744C38.0394 34.75 38.3519 34.5937 38.69 34.5057C39.0309 34.4148 39.3661 34.3693 39.6957 34.3693C39.9059 34.3693 40.1474 34.3949 40.4201 34.446C40.6957 34.4943 40.9613 34.5952 41.217 34.7486C41.4755 34.902 41.69 35.1335 41.8604 35.4432C42.0309 35.7528 42.1161 36.1676 42.1161 36.6875V41H41.1104V40.1136H41.0593C40.9911 40.2557 40.8775 40.4077 40.7184 40.5696C40.5593 40.7315 40.3477 40.8693 40.0835 40.983C39.8192 41.0966 39.4968 41.1534 39.1161 41.1534ZM39.2695 40.25C39.6673 40.25 40.0025 40.1719 40.2752 40.0156C40.5508 39.8594 40.7582 39.6577 40.8974 39.4105C41.0394 39.1634 41.1104 38.9034 41.1104 38.6307V37.7102C41.0678 37.7614 40.9741 37.8082 40.8292 37.8509C40.6871 37.8906 40.5224 37.9261 40.3349 37.9574C40.1502 37.9858 39.9698 38.0114 39.7937 38.0341C39.6204 38.054 39.4798 38.071 39.3718 38.0852C39.1104 38.1193 38.8661 38.1747 38.6388 38.2514C38.4144 38.3253 38.2326 38.4375 38.0934 38.5881C37.957 38.7358 37.8888 38.9375 37.8888 39.1932C37.8888 39.5426 38.0181 39.8068 38.2766 39.9858C38.538 40.1619 38.869 40.25 39.2695 40.25ZM44.9574 32.2727V41H43.9517V32.2727H44.9574ZM53.0039 41H50.3107V32.2727H53.1232C53.9698 32.2727 54.6942 32.4474 55.2965 32.7969C55.8988 33.1435 56.3604 33.642 56.6815 34.2926C57.0025 34.9403 57.163 35.7159 57.163 36.6193C57.163 37.5284 57.0011 38.3111 56.6772 38.9673C56.3533 39.6207 55.8817 40.1236 55.2624 40.4759C54.6431 40.8253 53.8903 41 53.0039 41ZM51.3675 40.0625H52.9357C53.6573 40.0625 54.2553 39.9233 54.7298 39.6449C55.2042 39.3665 55.5579 38.9702 55.7908 38.456C56.0238 37.9418 56.1403 37.3295 56.1403 36.6193C56.1403 35.9148 56.0252 35.3082 55.7951 34.7997C55.565 34.2884 55.2212 33.8963 54.7638 33.6236C54.3065 33.348 53.7369 33.2102 53.055 33.2102H51.3675V40.0625ZM61.5437 41.1364C60.913 41.1364 60.369 40.9972 59.9116 40.7188C59.457 40.4375 59.1062 40.0455 58.859 39.5426C58.6147 39.0369 58.4925 38.4489 58.4925 37.7784C58.4925 37.108 58.6147 36.517 58.859 36.0057C59.1062 35.4915 59.4499 35.0909 59.8903 34.804C60.3335 34.5142 60.8505 34.3693 61.4414 34.3693C61.7823 34.3693 62.119 34.4261 62.4513 34.5398C62.7837 34.6534 63.0863 34.8381 63.359 35.0938C63.6317 35.3466 63.8491 35.6818 64.011 36.0994C64.1729 36.517 64.2539 37.0312 64.2539 37.642V38.0682H59.2085V37.1989H63.2312C63.2312 36.8295 63.1573 36.5 63.0096 36.2102C62.8647 35.9205 62.6573 35.6918 62.3874 35.5241C62.1204 35.3565 61.805 35.2727 61.4414 35.2727C61.0408 35.2727 60.6942 35.3722 60.4016 35.571C60.1119 35.767 59.8888 36.0227 59.7326 36.3381C59.5763 36.6534 59.4982 36.9915 59.4982 37.3523V37.9318C59.4982 38.4261 59.5835 38.8452 59.7539 39.1889C59.9272 39.5298 60.1673 39.7898 60.4741 39.9688C60.7809 40.1449 61.1374 40.233 61.5437 40.233C61.8079 40.233 62.0465 40.196 62.2596 40.1222C62.4755 40.0455 62.6616 39.9318 62.8178 39.7812C62.9741 39.6278 63.0948 39.4375 63.18 39.2102L64.1516 39.483C64.0494 39.8125 63.8775 40.1023 63.636 40.3523C63.3945 40.5994 63.0962 40.7926 62.7411 40.9318C62.386 41.0682 61.9869 41.1364 61.5437 41.1364ZM66.7894 32.2727V41H65.7837V32.2727H66.7894ZM68.6314 41V34.4545H69.6371V41H68.6314ZM69.1428 33.3636C68.9467 33.3636 68.7777 33.2969 68.6357 33.1634C68.4964 33.0298 68.4268 32.8693 68.4268 32.6818C68.4268 32.4943 68.4964 32.3338 68.6357 32.2003C68.7777 32.0668 68.9467 32 69.1428 32C69.3388 32 69.5064 32.0668 69.6456 32.2003C69.7876 32.3338 69.8587 32.4943 69.8587 32.6818C69.8587 32.8693 69.7876 33.0298 69.6456 33.1634C69.5064 33.2969 69.3388 33.3636 69.1428 33.3636ZM76.8313 34.4545L74.4109 41H73.3881L70.9677 34.4545H72.0586L73.8654 39.6705H73.9336L75.7404 34.4545H76.8313ZM80.6687 41.1364C80.038 41.1364 79.494 40.9972 79.0366 40.7188C78.582 40.4375 78.2312 40.0455 77.984 39.5426C77.7397 39.0369 77.6175 38.4489 77.6175 37.7784C77.6175 37.108 77.7397 36.517 77.984 36.0057C78.2312 35.4915 78.5749 35.0909 79.0153 34.804C79.4585 34.5142 79.9755 34.3693 80.5664 34.3693C80.9073 34.3693 81.244 34.4261 81.5763 34.5398C81.9087 34.6534 82.2113 34.8381 82.484 35.0938C82.7567 35.3466 82.9741 35.6818 83.136 36.0994C83.2979 36.517 83.3789 37.0312 83.3789 37.642V38.0682H78.3335V37.1989H82.3562C82.3562 36.8295 82.2823 36.5 82.1346 36.2102C81.9897 35.9205 81.7823 35.6918 81.5124 35.5241C81.2454 35.3565 80.93 35.2727 80.5664 35.2727C80.1658 35.2727 79.8192 35.3722 79.5266 35.571C79.2369 35.767 79.0138 36.0227 78.8576 36.3381C78.7013 36.6534 78.6232 36.9915 78.6232 37.3523V37.9318C78.6232 38.4261 78.7085 38.8452 78.8789 39.1889C79.0522 39.5298 79.2923 39.7898 79.5991 39.9688C79.9059 40.1449 80.2624 40.233 80.6687 40.233C80.9329 40.233 81.1715 40.196 81.3846 40.1222C81.6005 40.0455 81.7866 39.9318 81.9428 39.7812C82.0991 39.6278 82.2198 39.4375 82.305 39.2102L83.2766 39.483C83.1744 39.8125 83.0025 40.1023 82.761 40.3523C82.5195 40.5994 82.2212 40.7926 81.8661 40.9318C81.511 41.0682 81.1119 41.1364 80.6687 41.1364ZM84.9087 41V34.4545H85.8803V35.4432H85.9485C86.0678 35.1193 86.2837 34.8565 86.5962 34.6548C86.9087 34.4531 87.261 34.3523 87.6531 34.3523C87.7269 34.3523 87.8192 34.3537 87.93 34.3565C88.0408 34.3594 88.1246 34.3636 88.1815 34.3693V35.392C88.1474 35.3835 88.0692 35.3707 87.9471 35.3537C87.8278 35.3338 87.7013 35.3239 87.5678 35.3239C87.2496 35.3239 86.9656 35.3906 86.7156 35.5241C86.4684 35.6548 86.2724 35.8366 86.1275 36.0696C85.9854 36.2997 85.9144 36.5625 85.9144 36.858V41H84.9087ZM89.3736 41V34.4545H90.3793V41H89.3736ZM89.8849 33.3636C89.6889 33.3636 89.5199 33.2969 89.3778 33.1634C89.2386 33.0298 89.169 32.8693 89.169 32.6818C89.169 32.4943 89.2386 32.3338 89.3778 32.2003C89.5199 32.0668 89.6889 32 89.8849 32C90.081 32 90.2486 32.0668 90.3878 32.2003C90.5298 32.3338 90.6009 32.4943 90.6009 32.6818C90.6009 32.8693 90.5298 33.0298 90.3878 33.1634C90.2486 33.2969 90.081 33.3636 89.8849 33.3636ZM94.9656 41.1364C94.3349 41.1364 93.7908 40.9972 93.3335 40.7188C92.8789 40.4375 92.5281 40.0455 92.2809 39.5426C92.0366 39.0369 91.9144 38.4489 91.9144 37.7784C91.9144 37.108 92.0366 36.517 92.2809 36.0057C92.5281 35.4915 92.8718 35.0909 93.3121 34.804C93.7553 34.5142 94.2724 34.3693 94.8633 34.3693C95.2042 34.3693 95.5408 34.4261 95.8732 34.5398C96.2056 34.6534 96.5082 34.8381 96.7809 35.0938C97.0536 35.3466 97.271 35.6818 97.4329 36.0994C97.5948 36.517 97.6758 37.0312 97.6758 37.642V38.0682H92.6303V37.1989H96.6531C96.6531 36.8295 96.5792 36.5 96.4315 36.2102C96.2866 35.9205 96.0792 35.6918 95.8093 35.5241C95.5423 35.3565 95.2269 35.2727 94.8633 35.2727C94.4627 35.2727 94.1161 35.3722 93.8235 35.571C93.5337 35.767 93.3107 36.0227 93.1545 36.3381C92.9982 36.6534 92.9201 36.9915 92.9201 37.3523V37.9318C92.9201 38.4261 93.0053 38.8452 93.1758 39.1889C93.3491 39.5298 93.5891 39.7898 93.896 39.9688C94.2028 40.1449 94.5593 40.233 94.9656 40.233C95.2298 40.233 95.4684 40.196 95.6815 40.1222C95.8974 40.0455 96.0835 39.9318 96.2397 39.7812C96.396 39.6278 96.5167 39.4375 96.6019 39.2102L97.5735 39.483C97.4712 39.8125 97.2994 40.1023 97.0579 40.3523C96.8164 40.5994 96.5181 40.7926 96.163 40.9318C95.8079 41.0682 95.4087 41.1364 94.9656 41.1364ZM103.842 35.9205L102.939 36.1761C102.882 36.0256 102.798 35.8793 102.687 35.7372C102.579 35.5923 102.431 35.473 102.244 35.3793C102.056 35.2855 101.816 35.2386 101.524 35.2386C101.123 35.2386 100.789 35.331 100.522 35.5156C100.258 35.6974 100.126 35.929 100.126 36.2102C100.126 36.4602 100.217 36.6577 100.399 36.8026C100.581 36.9474 100.865 37.0682 101.251 37.1648L102.223 37.4034C102.808 37.5455 103.244 37.7628 103.531 38.0554C103.818 38.3452 103.961 38.7187 103.961 39.1761C103.961 39.5511 103.853 39.8864 103.637 40.1818C103.424 40.4773 103.126 40.7102 102.743 40.8807C102.359 41.0511 101.913 41.1364 101.404 41.1364C100.737 41.1364 100.184 40.9915 99.7468 40.7017C99.3093 40.4119 99.0323 39.9886 98.9158 39.4318L99.8704 39.1932C99.9613 39.5455 100.133 39.8097 100.386 39.9858C100.642 40.1619 100.975 40.25 101.387 40.25C101.856 40.25 102.228 40.1506 102.504 39.9517C102.782 39.75 102.922 39.5085 102.922 39.2273C102.922 39 102.842 38.8097 102.683 38.6562C102.524 38.5 102.279 38.3835 101.95 38.3068L100.859 38.0511C100.26 37.9091 99.8192 37.6889 99.538 37.3906C99.2596 37.0895 99.1204 36.7131 99.1204 36.2614C99.1204 35.892 99.2241 35.5653 99.4315 35.2812C99.6417 34.9972 99.9272 34.7741 100.288 34.6122C100.652 34.4503 101.064 34.3693 101.524 34.3693C102.172 34.3693 102.68 34.5114 103.049 34.7955C103.422 35.0795 103.686 35.4545 103.842 35.9205Z" fill="black"/>
<path d="M212.055 19.0488C211.527 19.0488 211.021 19.2585 210.647 19.6317C210.274 20.005 210.064 20.5112 210.064 21.039V39.9457C210.064 40.4735 210.274 40.9798 210.647 41.353C211.021 41.7261 211.527 41.9359 212.055 41.9359H233.947C234.474 41.9359 234.981 41.7261 235.354 41.353C235.727 40.9798 235.937 40.4735 235.937 39.9457V21.039C235.937 20.5112 235.727 20.005 235.354 19.6317C234.981 19.2585 234.474 19.0488 233.947 19.0488H229.966" stroke="#D71E1E" stroke-width="1.71" stroke-linecap="round" stroke-linejoin="round"/>
<path d="M210.064 26.0156H235.937" stroke="#D71E1E" stroke-width="1.71" stroke-linecap="round" stroke-linejoin="round"/>
<path d="M216.035 16.0645V22.035" stroke="#D71E1E" stroke-width="1.71" stroke-linecap="round" stroke-linejoin="round"/>
<path d="M229.967 16.0645V22.035" stroke="#D71E1E" stroke-width="1.71" stroke-linecap="round" stroke-linejoin="round"/>
<path d="M216.035 19.0488H225.986" stroke="#D71E1E" stroke-width="1.71" stroke-linecap="round" stroke-linejoin="round"/>
<path d="M19.5057 87V85.7216L24.3068 80.4659C24.8703 79.8504 25.3343 79.3153 25.6989 78.8608C26.0634 78.4015 26.3333 77.9706 26.5085 77.5682C26.6884 77.161 26.7784 76.7348 26.7784 76.2898C26.7784 75.7784 26.6553 75.3357 26.4091 74.9616C26.1676 74.5876 25.8362 74.2988 25.4148 74.0952C24.9934 73.8916 24.5199 73.7898 23.9943 73.7898C23.4356 73.7898 22.9479 73.9058 22.5312 74.1378C22.1193 74.3651 21.7997 74.6847 21.5724 75.0966C21.3499 75.5085 21.2386 75.9915 21.2386 76.5455H19.5625C19.5625 75.6932 19.759 74.9451 20.152 74.3011C20.545 73.6572 21.08 73.1553 21.7571 72.7955C22.4389 72.4356 23.2036 72.2557 24.0511 72.2557C24.9034 72.2557 25.6586 72.4356 26.3168 72.7955C26.9749 73.1553 27.491 73.6406 27.8651 74.2514C28.2391 74.8622 28.4261 75.5417 28.4261 76.2898C28.4261 76.8248 28.3291 77.348 28.1349 77.8594C27.9455 78.366 27.6141 78.9318 27.1406 79.5568C26.6719 80.1771 26.0208 80.9347 25.1875 81.8295L21.9205 85.3239V85.4375H28.6818V87H19.5057ZM32.0696 87L38.5753 74.1307V74.017H31.0753V72.4545H40.3935V74.1023L33.9162 87H32.0696ZM47.407 87.1989C46.4316 87.1989 45.5698 87.026 44.8217 86.6804C44.0784 86.33 43.4983 85.8494 43.0817 85.2386C42.665 84.6231 42.459 83.9223 42.4638 83.1364C42.459 82.5208 42.5798 81.9527 42.826 81.4318C43.0722 80.9062 43.4084 80.4683 43.8345 80.1179C44.2654 79.7628 44.746 79.5379 45.2763 79.4432V79.358C44.5803 79.178 44.0263 78.7874 43.6143 78.1861C43.2024 77.58 42.9988 76.8911 43.0036 76.1193C42.9988 75.3807 43.1858 74.7202 43.5646 74.1378C43.9434 73.5554 44.4643 73.0961 45.1271 72.7599C45.7947 72.4238 46.5547 72.2557 47.407 72.2557C48.2498 72.2557 49.0026 72.4238 49.6655 72.7599C50.3284 73.0961 50.8492 73.5554 51.228 74.1378C51.6115 74.7202 51.8056 75.3807 51.8104 76.1193C51.8056 76.8911 51.5949 77.58 51.1783 78.1861C50.7663 78.7874 50.2195 79.178 49.5376 79.358V79.4432C50.0632 79.5379 50.5367 79.7628 50.9581 80.1179C51.3795 80.4683 51.7157 80.9062 51.9666 81.4318C52.2176 81.9527 52.3454 82.5208 52.3501 83.1364C52.3454 83.9223 52.1323 84.6231 51.7109 85.2386C51.2943 85.8494 50.7143 86.33 49.9709 86.6804C49.2322 87.026 48.3776 87.1989 47.407 87.1989ZM47.407 85.6364C48.0651 85.6364 48.6333 85.5298 49.1115 85.3168C49.5897 85.1037 49.959 84.803 50.2195 84.4148C50.4799 84.0265 50.6125 83.572 50.6172 83.0511C50.6125 82.5019 50.4704 82.0166 50.1911 81.5952C49.9117 81.1738 49.5305 80.8423 49.0476 80.6009C48.5694 80.3594 48.0225 80.2386 47.407 80.2386C46.7867 80.2386 46.2327 80.3594 45.745 80.6009C45.2621 80.8423 44.8809 81.1738 44.6016 81.5952C44.3269 82.0166 44.192 82.5019 44.1967 83.0511C44.192 83.572 44.3175 84.0265 44.5732 84.4148C44.8336 84.803 45.2053 85.1037 45.6882 85.3168C46.1712 85.5298 46.7441 85.6364 47.407 85.6364ZM47.407 78.733C47.9278 78.733 48.3894 78.6288 48.7919 78.4205C49.1991 78.2121 49.5187 77.9209 49.7507 77.5469C49.9827 77.1728 50.1011 76.7348 50.1058 76.233C50.1011 75.7405 49.9851 75.312 49.7578 74.9474C49.5305 74.5781 49.2157 74.294 48.8132 74.0952C48.4107 73.8916 47.942 73.7898 47.407 73.7898C46.8625 73.7898 46.3866 73.8916 45.9794 74.0952C45.5722 74.294 45.2573 74.5781 45.0348 74.9474C44.8123 75.312 44.7034 75.7405 44.7081 76.233C44.7034 76.7348 44.8146 77.1728 45.0419 77.5469C45.2739 77.9209 45.5935 78.2121 46.0007 78.4205C46.4079 78.6288 46.8767 78.733 47.407 78.733ZM59.7312 87.1989C58.7558 87.1989 57.8941 87.026 57.146 86.6804C56.4026 86.33 55.8226 85.8494 55.4059 85.2386C54.9892 84.6231 54.7833 83.9223 54.788 83.1364C54.7833 82.5208 54.904 81.9527 55.1502 81.4318C55.3964 80.9062 55.7326 80.4683 56.1587 80.1179C56.5896 79.7628 57.0702 79.5379 57.6005 79.4432V79.358C56.9045 79.178 56.3505 78.7874 55.9386 78.1861C55.5266 77.58 55.323 76.8911 55.3278 76.1193C55.323 75.3807 55.5101 74.7202 55.8888 74.1378C56.2676 73.5554 56.7885 73.0961 57.4513 72.7599C58.119 72.4238 58.8789 72.2557 59.7312 72.2557C60.574 72.2557 61.3268 72.4238 61.9897 72.7599C62.6526 73.0961 63.1734 73.5554 63.5522 74.1378C63.9357 74.7202 64.1299 75.3807 64.1346 76.1193C64.1299 76.8911 63.9192 77.58 63.5025 78.1861C63.0906 78.7874 62.5437 79.178 61.8619 79.358V79.4432C62.3874 79.5379 62.8609 79.7628 63.2823 80.1179C63.7037 80.4683 64.0399 80.9062 64.2908 81.4318C64.5418 81.9527 64.6696 82.5208 64.6744 83.1364C64.6696 83.9223 64.4566 84.6231 64.0352 85.2386C63.6185 85.8494 63.0385 86.33 62.2951 86.6804C61.5565 87.026 60.7018 87.1989 59.7312 87.1989ZM59.7312 85.6364C60.3893 85.6364 60.9575 85.5298 61.4357 85.3168C61.9139 85.1037 62.2833 84.803 62.5437 84.4148C62.8041 84.0265 62.9367 83.572 62.9414 83.0511C62.9367 82.5019 62.7946 82.0166 62.5153 81.5952C62.2359 81.1738 61.8548 80.8423 61.3718 80.6009C60.8936 80.3594 60.3467 80.2386 59.7312 80.2386C59.1109 80.2386 58.5569 80.3594 58.0692 80.6009C57.5863 80.8423 57.2051 81.1738 56.9258 81.5952C56.6512 82.0166 56.5162 82.5019 56.521 83.0511C56.5162 83.572 56.6417 84.0265 56.8974 84.4148C57.1578 84.803 57.5295 85.1037 58.0124 85.3168C58.4954 85.5298 59.0683 85.6364 59.7312 85.6364ZM59.7312 78.733C60.252 78.733 60.7137 78.6288 61.1161 78.4205C61.5233 78.2121 61.8429 77.9209 62.0749 77.5469C62.3069 77.1728 62.4253 76.7348 62.43 76.233C62.4253 75.7405 62.3093 75.312 62.082 74.9474C61.8548 74.5781 61.5399 74.294 61.1374 74.0952C60.735 73.8916 60.2662 73.7898 59.7312 73.7898C59.1867 73.7898 58.7108 73.8916 58.3036 74.0952C57.8964 74.294 57.5816 74.5781 57.359 74.9474C57.1365 75.312 57.0276 75.7405 57.0323 76.233C57.0276 76.7348 57.1388 77.1728 57.3661 77.5469C57.5981 77.9209 57.9177 78.2121 58.3249 78.4205C58.7321 78.6288 59.2009 78.733 59.7312 78.733ZM67.8509 87L74.3565 74.1307V74.017H66.8565V72.4545H76.1747V74.1023L69.6974 87H67.8509ZM83.1882 87.1989C82.2128 87.1989 81.3511 87.026 80.603 86.6804C79.8596 86.33 79.2796 85.8494 78.8629 85.2386C78.4463 84.6231 78.2403 83.9223 78.245 83.1364C78.2403 82.5208 78.361 81.9527 78.6072 81.4318C78.8535 80.9062 79.1896 80.4683 79.6158 80.1179C80.0466 79.7628 80.5272 79.5379 81.0575 79.4432V79.358C80.3615 79.178 79.8075 78.7874 79.3956 78.1861C78.9837 77.58 78.7801 76.8911 78.7848 76.1193C78.7801 75.3807 78.9671 74.7202 79.3459 74.1378C79.7247 73.5554 80.2455 73.0961 80.9084 72.7599C81.576 72.4238 82.3359 72.2557 83.1882 72.2557C84.031 72.2557 84.7839 72.4238 85.4467 72.7599C86.1096 73.0961 86.6304 73.5554 87.0092 74.1378C87.3928 74.7202 87.5869 75.3807 87.5916 76.1193C87.5869 76.8911 87.3762 77.58 86.9595 78.1861C86.5476 78.7874 86.0007 79.178 85.3189 79.358V79.4432C85.8445 79.5379 86.3179 79.7628 86.7393 80.1179C87.1607 80.4683 87.4969 80.9062 87.7479 81.4318C87.9988 81.9527 88.1267 82.5208 88.1314 83.1364C88.1267 83.9223 87.9136 84.6231 87.4922 85.2386C87.0755 85.8494 86.4955 86.33 85.7521 86.6804C85.0135 87.026 84.1589 87.1989 83.1882 87.1989ZM83.1882 85.6364C83.8464 85.6364 84.4145 85.5298 84.8928 85.3168C85.371 85.1037 85.7403 84.803 86.0007 84.4148C86.2611 84.0265 86.3937 83.572 86.3984 83.0511C86.3937 82.5019 86.2517 82.0166 85.9723 81.5952C85.6929 81.1738 85.3118 80.8423 84.8288 80.6009C84.3506 80.3594 83.8037 80.2386 83.1882 80.2386C82.5679 80.2386 82.014 80.3594 81.5263 80.6009C81.0433 80.8423 80.6622 81.1738 80.3828 81.5952C80.1082 82.0166 79.9732 82.5019 79.978 83.0511C79.9732 83.572 80.0987 84.0265 80.3544 84.4148C80.6148 84.803 80.9865 85.1037 81.4695 85.3168C81.9524 85.5298 82.5253 85.6364 83.1882 85.6364ZM83.1882 78.733C83.709 78.733 84.1707 78.6288 84.5732 78.4205C84.9804 78.2121 85.3 77.9209 85.532 77.5469C85.764 77.1728 85.8823 76.7348 85.8871 76.233C85.8823 75.7405 85.7663 75.312 85.5391 74.9474C85.3118 74.5781 84.9969 74.294 84.5945 74.0952C84.192 73.8916 83.7232 73.7898 83.1882 73.7898C82.6437 73.7898 82.1679 73.8916 81.7607 74.0952C81.3535 74.294 81.0386 74.5781 80.8161 74.9474C80.5935 75.312 80.4846 75.7405 80.4893 76.233C80.4846 76.7348 80.5959 77.1728 80.8232 77.5469C81.0552 77.9209 81.3748 78.2121 81.782 78.4205C82.1892 78.6288 82.6579 78.733 83.1882 78.733ZM95.6829 87.1989C95.0863 87.1894 94.4897 87.0758 93.8931 86.858C93.2965 86.6402 92.752 86.2732 92.2596 85.7571C91.7672 85.2363 91.3718 84.5331 91.0735 83.6477C90.7752 82.7576 90.6261 81.6402 90.6261 80.2955C90.6261 79.0076 90.7468 77.8665 90.9883 76.8722C91.2298 75.8731 91.5801 75.0327 92.0394 74.3509C92.4987 73.6643 93.0527 73.1435 93.7013 72.7884C94.3548 72.4332 95.091 72.2557 95.9102 72.2557C96.7246 72.2557 97.449 72.419 98.0835 72.7457C98.7227 73.0677 99.2435 73.5175 99.646 74.0952C100.048 74.6728 100.309 75.3381 100.427 76.0909H98.6942C98.5333 75.4375 98.2208 74.8954 97.7567 74.4645C97.2927 74.0336 96.6772 73.8182 95.9102 73.8182C94.7833 73.8182 93.8955 74.3082 93.2468 75.2884C92.6029 76.2685 92.2785 77.6439 92.2738 79.4148H92.3874C92.6526 79.0123 92.9674 78.669 93.332 78.3849C93.7013 78.0961 94.1085 77.8736 94.5536 77.7173C94.9987 77.5611 95.4698 77.483 95.967 77.483C96.8003 77.483 97.5626 77.6913 98.2539 78.108C98.9452 78.5199 99.4992 79.0904 99.9158 79.8196C100.333 80.544 100.541 81.375 100.541 82.3125C100.541 83.2121 100.34 84.036 99.9371 84.7841C99.5347 85.5275 98.9689 86.1193 98.2397 86.5597C97.5153 86.9953 96.663 87.2083 95.6829 87.1989ZM95.6829 85.6364C96.2795 85.6364 96.8145 85.4872 97.288 85.1889C97.7662 84.8906 98.1426 84.4905 98.4173 83.9886C98.6966 83.4867 98.8363 82.928 98.8363 82.3125C98.8363 81.7112 98.7013 81.1643 98.4315 80.6719C98.1663 80.1747 97.7994 79.7794 97.3306 79.4858C96.8666 79.1922 96.3363 79.0455 95.7397 79.0455C95.2899 79.0455 94.8709 79.1354 94.4826 79.3153C94.0943 79.4905 93.7534 79.732 93.4599 80.0398C93.171 80.3475 92.9438 80.7003 92.7781 81.098C92.6123 81.491 92.5295 81.9053 92.5295 82.3409C92.5295 82.9186 92.6644 83.4583 92.9343 83.9602C93.2089 84.4621 93.583 84.867 94.0565 85.1747C94.5347 85.4825 95.0768 85.6364 95.6829 85.6364ZM121.487 79.7273C121.487 81.2614 121.21 82.5871 120.656 83.7045C120.102 84.822 119.342 85.6837 118.376 86.2898C117.411 86.8958 116.307 87.1989 115.067 87.1989C113.826 87.1989 112.723 86.8958 111.757 86.2898C110.791 85.6837 110.031 84.822 109.477 83.7045C108.923 82.5871 108.646 81.2614 108.646 79.7273C108.646 78.1932 108.923 76.8674 109.477 75.75C110.031 74.6326 110.791 73.7708 111.757 73.1648C112.723 72.5587 113.826 72.2557 115.067 72.2557C116.307 72.2557 117.411 72.5587 118.376 73.1648C119.342 73.7708 120.102 74.6326 120.656 75.75C121.21 76.8674 121.487 78.1932 121.487 79.7273ZM119.783 79.7273C119.783 78.4678 119.572 77.4048 119.151 76.5384C118.734 75.6719 118.168 75.0161 117.453 74.571C116.743 74.1259 115.947 73.9034 115.067 73.9034C114.186 73.9034 113.388 74.1259 112.673 74.571C111.963 75.0161 111.397 75.6719 110.976 76.5384C110.559 77.4048 110.351 78.4678 110.351 79.7273C110.351 80.9867 110.559 82.0497 110.976 82.9162C111.397 83.7827 111.963 84.4384 112.673 84.8835C113.388 85.3286 114.186 85.5511 115.067 85.5511C115.947 85.5511 116.743 85.3286 117.453 84.8835C118.168 84.4384 118.734 83.7827 119.151 82.9162C119.572 82.0497 119.783 80.9867 119.783 79.7273ZM124.222 87V76.0909H125.841V77.7386H125.955C126.153 77.1989 126.513 76.7609 127.034 76.4247C127.555 76.0885 128.142 75.9205 128.795 75.9205C128.919 75.9205 129.072 75.9228 129.257 75.9276C129.442 75.9323 129.581 75.9394 129.676 75.9489V77.6534C129.619 77.6392 129.489 77.6179 129.286 77.5895C129.087 77.5563 128.876 77.5398 128.653 77.5398C128.123 77.5398 127.65 77.651 127.233 77.8736C126.821 78.0914 126.494 78.3944 126.253 78.7827C126.016 79.1662 125.898 79.6042 125.898 80.0966V87H124.222ZM135.45 87.2273C134.541 87.2273 133.739 86.9976 133.043 86.5384C132.347 86.0743 131.802 85.4209 131.409 84.5781C131.016 83.7306 130.82 82.7292 130.82 81.5739C130.82 80.428 131.016 79.4337 131.409 78.5909C131.802 77.7481 132.349 77.0971 133.05 76.6378C133.75 76.1785 134.56 75.9489 135.479 75.9489C136.189 75.9489 136.75 76.0672 137.162 76.304C137.579 76.536 137.896 76.8011 138.114 77.0994C138.336 77.393 138.509 77.6345 138.632 77.8239H138.774V72.4545H140.45V87H138.831V85.3239H138.632C138.509 85.5227 138.334 85.7737 138.107 86.0767C137.879 86.375 137.555 86.6425 137.134 86.8793C136.712 87.1113 136.151 87.2273 135.45 87.2273ZM135.678 85.7216C136.35 85.7216 136.918 85.5464 137.382 85.196C137.846 84.8409 138.199 84.3509 138.44 83.7259C138.682 83.0961 138.803 82.3693 138.803 81.5455C138.803 80.7311 138.684 80.0185 138.447 79.4077C138.211 78.7921 137.86 78.3139 137.396 77.973C136.932 77.6274 136.359 77.4545 135.678 77.4545C134.967 77.4545 134.375 77.6368 133.902 78.0014C133.433 78.3613 133.08 78.8513 132.844 79.4716C132.612 80.0871 132.496 80.7784 132.496 81.5455C132.496 82.322 132.614 83.0275 132.851 83.6619C133.092 84.2917 133.447 84.7936 133.916 85.1676C134.39 85.5369 134.977 85.7216 135.678 85.7216ZM148.327 87.2273C147.276 87.2273 146.369 86.9953 145.607 86.5312C144.849 86.0625 144.264 85.4091 143.852 84.571C143.445 83.7282 143.241 82.7481 143.241 81.6307C143.241 80.5133 143.445 79.5284 143.852 78.6761C144.264 77.8191 144.837 77.1515 145.571 76.6733C146.31 76.1903 147.171 75.9489 148.156 75.9489C148.724 75.9489 149.286 76.0436 149.839 76.233C150.393 76.4223 150.898 76.7301 151.352 77.1562C151.807 77.5777 152.169 78.1364 152.439 78.8324C152.709 79.5284 152.844 80.3854 152.844 81.4034V82.1136H144.435V80.6648H151.139C151.139 80.0492 151.016 79.5 150.77 79.017C150.528 78.5341 150.183 78.1529 149.733 77.8736C149.288 77.5942 148.762 77.4545 148.156 77.4545C147.489 77.4545 146.911 77.6203 146.423 77.9517C145.94 78.2784 145.569 78.7045 145.308 79.2301C145.048 79.7557 144.918 80.3191 144.918 80.9205V81.8864C144.918 82.7102 145.06 83.4086 145.344 83.9815C145.633 84.5497 146.033 84.983 146.544 85.2812C147.055 85.5748 147.65 85.7216 148.327 85.7216C148.767 85.7216 149.165 85.66 149.52 85.5369C149.88 85.4091 150.19 85.2197 150.45 84.9688C150.711 84.7131 150.912 84.3958 151.054 84.017L152.673 84.4716C152.503 85.0208 152.216 85.5038 151.814 85.9205C151.411 86.3324 150.914 86.6544 150.322 86.8864C149.731 87.1136 149.065 87.2273 148.327 87.2273ZM155.393 87V76.0909H157.013V77.7386H157.126C157.325 77.1989 157.685 76.7609 158.206 76.4247C158.727 76.0885 159.314 75.9205 159.967 75.9205C160.09 75.9205 160.244 75.9228 160.429 75.9276C160.614 75.9323 160.753 75.9394 160.848 75.9489V77.6534C160.791 77.6392 160.661 77.6179 160.457 77.5895C160.259 77.5563 160.048 77.5398 159.825 77.5398C159.295 77.5398 158.821 77.651 158.405 77.8736C157.993 78.0914 157.666 78.3944 157.425 78.7827C157.188 79.1662 157.07 79.6042 157.07 80.0966V87H155.393ZM170.562 78.5341L169.056 78.9602C168.962 78.7093 168.822 78.4654 168.637 78.2287C168.458 77.9872 168.211 77.7884 167.899 77.6321C167.586 77.4759 167.186 77.3977 166.699 77.3977C166.031 77.3977 165.475 77.5516 165.029 77.8594C164.589 78.1624 164.369 78.5483 164.369 79.017C164.369 79.4337 164.52 79.7628 164.824 80.0043C165.127 80.2457 165.6 80.447 166.244 80.608L167.863 81.0057C168.839 81.2424 169.565 81.6046 170.044 82.0923C170.522 82.5753 170.761 83.1979 170.761 83.9602C170.761 84.5852 170.581 85.1439 170.221 85.6364C169.866 86.1288 169.369 86.517 168.73 86.8011C168.091 87.0852 167.347 87.2273 166.5 87.2273C165.387 87.2273 164.466 86.9858 163.737 86.5028C163.008 86.0199 162.546 85.3144 162.352 84.3864L163.943 83.9886C164.094 84.5758 164.381 85.0161 164.802 85.3097C165.228 85.6032 165.785 85.75 166.471 85.75C167.252 85.75 167.873 85.5843 168.332 85.2528C168.796 84.9167 169.028 84.5142 169.028 84.0455C169.028 83.6667 168.895 83.3494 168.63 83.0938C168.365 82.8333 167.958 82.6392 167.409 82.5114L165.591 82.0852C164.592 81.8485 163.858 81.4815 163.389 80.9844C162.925 80.4825 162.693 79.8551 162.693 79.1023C162.693 78.4867 162.866 77.9422 163.211 77.4688C163.562 76.9953 164.038 76.6236 164.639 76.3537C165.245 76.0838 165.931 75.9489 166.699 75.9489C167.778 75.9489 168.626 76.1856 169.241 76.6591C169.861 77.1326 170.302 77.7576 170.562 78.5341Z" fill="black"/>
</g>
<defs>
<filter id="filter0_d_1138_2209" x="0" y="0" width="256" height="114" filterUnits="userSpaceOnUse" color-interpolation-filters="sRGB">
<feFlood flood-opacity="0" result="BackgroundImageFix"/>
<feColorMatrix in="SourceAlpha" type="matrix" values="0 0 0 0 0 0 0 0 0 0 0 0 0 0 0 0 0 0 127 0" result="hardAlpha"/>
<feOffset dy="4"/>
<feGaussianBlur stdDeviation="4"/>
<feComposite in2="hardAlpha" operator="out"/>
<feColorMatrix type="matrix" values="0 0 0 0 0 0 0 0 0 0 0 0 0 0 0 0 0 0 0.25 0"/>
<feBlend mode="normal" in2="BackgroundImageFix" result="effect1_dropShadow_1138_2209"/>
<feBlend mode="normal" in="SourceGraphic" in2="effect1_dropShadow_1138_2209" result="shape"/>
</filter>
</defs>
</svg>
