<svg width="311" height="423" viewBox="0 0 311 423" fill="none" xmlns="http://www.w3.org/2000/svg">
<path d="M66.5525 16.88V15.6H75.1925V16.88H73.2725V26.64L80.0885 15.6H85.1765V16.88H83.4165L74.1365 27.28H76.2165C78.9472 27.28 80.6218 28.3147 81.2405 30.384L82.5845 34.864C82.7338 35.3973 82.9258 35.7707 83.1605 35.984C83.3952 36.1973 83.7898 36.304 84.3445 36.304C84.8992 36.304 85.5498 35.9947 86.2965 35.376L86.8725 36.144C85.1658 37.7013 83.3525 38.48 81.4325 38.48C80.4512 38.48 79.6618 38.3093 79.0645 37.968C78.4672 37.6267 78.0405 37.0293 77.7845 36.176L75.8965 29.968C75.7258 29.3707 75.4592 28.9547 75.0965 28.72C74.7338 28.4853 74.1258 28.3467 73.2725 28.304V36.72H75.1925V38H66.5525V36.72H68.4725V16.88H66.5525ZM88.1388 16.88V15.6H97.4188V16.88H95.1788V36.72H97.4188V38H88.1388V36.72H90.3788V16.88H88.1388ZM101.264 38V36.72H103.184V16.88H101.264V15.6H108.752L117.904 33.616V16.88H115.984V15.6H122.064V16.88H120.144V38H115.056L105.424 19.056V36.72H107.344V38H101.264ZM135.169 29.264V27.824H144.289V38.704C144.289 41.0507 143.585 42.7787 142.177 43.888C140.769 45.0187 138.87 45.584 136.481 45.584C135.073 45.584 133.718 45.2213 132.417 44.496C131.137 43.792 130.497 42.8213 130.497 41.584C130.497 41.3493 130.571 41.008 130.721 40.56L131.809 37.744C129.931 36.912 128.417 35.504 127.265 33.52C126.134 31.536 125.569 29.3067 125.569 26.832C125.569 23.4613 126.529 20.6667 128.449 18.448C130.39 16.2293 133.078 15.12 136.513 15.12C138.241 15.12 139.905 15.4613 141.505 16.144C143.105 16.8267 143.905 17.6373 143.905 18.576C143.905 18.9387 143.787 19.3547 143.553 19.824L141.761 22.768L140.609 22.384L140.769 21.2C140.854 20.688 140.897 20.1973 140.897 19.728C140.897 18.896 140.491 18.1707 139.681 17.552C138.87 16.9333 137.814 16.624 136.513 16.624C134.55 16.624 133.057 17.584 132.033 19.504C131.03 21.4027 130.529 23.792 130.529 26.672C130.529 29.5307 131.073 31.8667 132.161 33.68C133.27 35.472 134.881 36.368 136.993 36.368C137.846 36.368 138.678 36.1973 139.489 35.856V29.264H135.169ZM135.329 38.48C134.582 38.48 133.867 38.384 133.185 38.192V39.184C133.185 41.616 133.697 43.12 134.721 43.696C135.19 43.952 135.83 44.08 136.641 44.08C137.473 44.08 138.155 43.7813 138.689 43.184C139.222 42.608 139.489 41.7333 139.489 40.56V37.648C138.209 38.2027 136.822 38.48 135.329 38.48ZM150.823 33.872C150.823 34.704 151.228 35.4293 152.039 36.048C152.85 36.6667 153.895 36.976 155.175 36.976C156.455 36.976 157.468 36.6667 158.215 36.048C158.962 35.4293 159.335 34.608 159.335 33.584C159.335 32.2827 158.556 31.2053 156.999 30.352L152.263 27.824C149.532 26.352 148.167 24.2507 148.167 21.52C148.167 19.7707 148.807 18.2667 150.087 17.008C151.367 15.7493 153.276 15.12 155.815 15.12C157.522 15.12 159.143 15.4613 160.679 16.144C162.215 16.8267 162.983 17.6373 162.983 18.576C162.983 18.9387 162.866 19.3547 162.631 19.824L161.095 22.768L159.975 22.416V19.728C159.975 18.768 159.548 18.0107 158.695 17.456C157.863 16.9013 156.86 16.624 155.687 16.624C154.535 16.624 153.65 16.9653 153.031 17.648C152.412 18.3307 152.103 19.1093 152.103 19.984C152.103 21.7333 152.892 23.024 154.471 23.856L158.535 26C161.628 27.6213 163.175 29.7547 163.175 32.4C163.175 34.4053 162.418 35.92 160.903 36.944C159.41 37.968 157.511 38.48 155.207 38.48C153.479 38.48 151.815 38.1387 150.215 37.456C148.615 36.7733 147.815 35.9627 147.815 35.024C147.815 34.6613 147.932 34.2453 148.167 33.776L149.703 30.832L150.823 31.184V33.872ZM175.019 16.88V15.6H181.771L182.891 32.72C183.04 34.896 184.032 35.984 185.867 35.984C187.851 35.984 189.429 34.8107 190.603 32.464C190.539 32.1227 190.485 31.568 190.443 30.8L189.547 16.88H187.563V15.6H194.315L195.435 32.72C195.584 34.896 196.576 35.984 198.411 35.984C199.627 35.984 200.693 35.472 201.611 34.448C203.381 32.4427 204.267 29.4667 204.267 25.52C204.267 23.3227 203.883 21.3707 203.115 19.664C202.731 18.8107 202.229 18.256 201.611 18C200.992 17.7227 200.171 17.584 199.147 17.584H197.931L197.739 16.4L201.067 15.28C201.429 15.1733 201.749 15.12 202.027 15.12C202.304 15.12 202.539 15.1627 202.731 15.248C203.499 15.568 204.256 16.5493 205.003 18.192C205.749 19.8133 206.123 22 206.123 24.752C206.123 28.336 205.429 31.4613 204.043 34.128C203.339 35.4507 202.4 36.5067 201.227 37.296C200.075 38.0853 198.752 38.48 197.259 38.48C194.165 38.48 192.149 37.2853 191.211 34.896C189.589 37.2853 187.424 38.48 184.715 38.48C182.368 38.48 180.683 37.8507 179.659 36.592C178.656 35.3333 178.069 33.4027 177.899 30.8L177.003 16.88H175.019ZM212.471 16.88V15.6H220.087L226.455 36.72H228.055V38H219.799V36.72H221.655L220.471 32.784H211.766L210.615 36.72H212.471V38H207.062V36.72H208.663L214.647 16.88H212.471ZM216.087 18.256L212.215 31.344H220.023L216.087 18.256ZM231.57 38V36.72H234.77V30L228.946 16.88H227.41V15.6H233.746L238.802 28.144L241.682 15.6H246.514V16.88H245.01L239.57 30V36.72H242.77V38H231.57Z" fill="url(#paint0_angular_1490_1110)"/>
<path d="M97.412 67L99.612 54.5H103.412L101.772 63.8H105.572L105.012 67H97.412ZM98.832 55.4L90.372 54.5H98.992L98.832 55.4ZM98.512 57.32L90.032 56.42H98.652L98.512 57.32ZM98.172 59.24L89.692 58.34H98.332L98.172 59.24ZM97.832 61.16L89.352 60.26H97.992L97.832 61.16ZM97.492 63.08L89.012 62.18H97.652L97.492 63.08ZM97.152 65L88.672 64.1H97.312L97.152 65ZM96.812 66.94L88.332 66.04H96.972L96.812 66.94ZM114.613 67.3C112.88 67.3 111.66 66.96 110.953 66.28C110.26 65.6 109.913 64.5933 109.913 63.26C109.913 62.8867 109.933 62.4933 109.973 62.08C110.027 61.6667 110.093 61.2267 110.173 60.76C110.427 59.3067 110.8 58.1 111.293 57.14C111.787 56.1667 112.48 55.4333 113.373 54.94C114.267 54.4467 115.447 54.2 116.913 54.2C118.647 54.2 119.86 54.54 120.553 55.22C121.26 55.8867 121.613 56.8933 121.613 58.24C121.613 58.7867 121.567 59.4133 121.473 60.12C121.393 60.8267 121.247 61.5467 121.033 62.28C120.833 63.0133 120.56 63.7067 120.213 64.36C119.867 65.0133 119.433 65.5733 118.913 66.04C118.38 66.5067 117.76 66.8333 117.053 67.02C116.347 67.2067 115.533 67.3 114.613 67.3ZM111.973 55.16L105.853 54.5H112.873C112.713 54.5933 112.56 54.6933 112.413 54.8C112.267 54.9067 112.12 55.0267 111.973 55.16ZM110.573 57.22L103.093 56.42H110.973C110.907 56.5533 110.84 56.6867 110.773 56.82C110.707 56.94 110.64 57.0733 110.573 57.22ZM113.693 63.88H115.273C115.713 63.88 116.073 63.8267 116.353 63.72C116.647 63.6133 116.84 63.3133 116.933 62.82L117.853 57.62H116.253C115.813 57.62 115.453 57.6733 115.173 57.78C114.893 57.8867 114.707 58.1867 114.613 58.68L113.693 63.88ZM109.913 59.16L102.153 58.34H110.153L109.913 59.16ZM109.533 61.1L101.673 60.26H109.673L109.613 60.66C109.6 60.74 109.587 60.82 109.573 60.9C109.56 60.9667 109.547 61.0333 109.533 61.1ZM109.333 63.02L101.453 62.18H109.393C109.353 62.4733 109.333 62.7533 109.333 63.02ZM109.493 64.94L101.713 64.1H109.353C109.38 64.2467 109.4 64.3933 109.413 64.54C109.44 64.6733 109.467 64.8067 109.493 64.94ZM110.553 66.78L103.633 66.04H109.953C110.127 66.3467 110.327 66.5933 110.553 66.78ZM130.902 67.3C129.169 67.3 127.949 66.9667 127.242 66.3C126.549 65.62 126.202 64.62 126.202 63.3C126.202 62.9267 126.229 62.5333 126.282 62.12C126.335 61.6933 126.402 61.24 126.482 60.76C126.669 59.68 126.915 58.7333 127.222 57.92C127.542 57.0933 127.969 56.4067 128.502 55.86C129.035 55.3 129.715 54.8867 130.542 54.62C131.382 54.34 132.415 54.2 133.642 54.2C133.975 54.2 134.375 54.2267 134.842 54.28C135.309 54.3333 135.762 54.4 136.202 54.48C136.642 54.5467 136.982 54.6267 137.222 54.72L136.122 57.78C135.642 57.6867 135.142 57.62 134.622 57.58C134.102 57.5267 133.669 57.5 133.322 57.5C132.575 57.5 132.009 57.56 131.622 57.68C131.235 57.8 131.009 58.0733 130.942 58.5L129.962 64.16H131.222C131.609 64.16 131.929 64.12 132.182 64.04C132.435 63.9467 132.595 63.7067 132.662 63.32L132.762 62.78H131.802L132.342 59.72H136.922L135.742 66.4C134.902 66.7067 134.049 66.9333 133.182 67.08C132.329 67.2267 131.569 67.3 130.902 67.3ZM128.282 55.16L122.162 54.5H129.182C129.022 54.5933 128.869 54.6933 128.722 54.8C128.575 54.9067 128.429 55.0267 128.282 55.16ZM126.882 57.22L119.402 56.42H127.282C127.215 56.5533 127.149 56.6867 127.082 56.82C127.015 56.94 126.949 57.0733 126.882 57.22ZM126.222 59.16L118.462 58.34H126.462L126.222 59.16ZM125.842 61.1L117.982 60.26H125.982L125.922 60.66C125.909 60.74 125.895 60.82 125.882 60.9C125.869 60.9667 125.855 61.0333 125.842 61.1ZM125.642 63.02L117.762 62.18H125.702C125.662 62.4733 125.642 62.7533 125.642 63.02ZM125.802 64.94L118.022 64.1H125.662C125.689 64.2467 125.709 64.3933 125.722 64.54C125.749 64.6733 125.775 64.8067 125.802 64.94ZM126.862 66.78L119.942 66.04H126.262C126.435 66.3467 126.635 66.5933 126.862 66.78ZM141.494 67L143.694 54.5H147.494L145.294 67H141.494ZM142.914 55.4L134.454 54.5H143.074L142.914 55.4ZM142.594 57.32L134.114 56.42H142.734L142.594 57.32ZM142.254 59.24L133.774 58.34H142.414L142.254 59.24ZM141.914 61.16L133.434 60.26H142.074L141.914 61.16ZM141.574 63.08L133.094 62.18H141.734L141.574 63.08ZM141.234 65L132.754 64.1H141.394L141.234 65ZM140.894 66.94L132.414 66.04H141.054L140.894 66.94ZM156.252 67.3C155.466 67.3 154.692 67.2533 153.932 67.16C153.186 67.08 152.459 66.9533 151.752 66.78L152.872 63.48C153.379 63.6133 153.926 63.7267 154.512 63.82C155.099 63.9 155.652 63.94 156.172 63.94C156.599 63.94 156.972 63.9333 157.292 63.92C157.612 63.8933 157.919 63.86 158.212 63.82L158.372 62.82L156.712 62.66C155.406 62.5267 154.499 62.2333 153.992 61.78C153.486 61.3133 153.232 60.68 153.232 59.88C153.232 59.52 153.272 59.12 153.352 58.68C153.566 57.5467 153.872 56.6533 154.272 56C154.686 55.3467 155.272 54.8867 156.032 54.62C156.792 54.34 157.799 54.2 159.052 54.2C159.786 54.2 160.506 54.24 161.212 54.32C161.919 54.4 162.599 54.5267 163.252 54.7L162.212 57.9C161.692 57.8067 161.199 57.7333 160.732 57.68C160.266 57.6267 159.746 57.6 159.172 57.6C158.866 57.6 158.606 57.6067 158.392 57.62C158.179 57.6333 157.919 57.66 157.612 57.7L157.452 58.68L158.792 58.82C159.752 58.9133 160.506 59.1 161.052 59.38C161.599 59.6467 161.986 59.9867 162.212 60.4C162.439 60.8 162.552 61.2667 162.552 61.8C162.552 61.96 162.539 62.1267 162.512 62.3C162.499 62.46 162.479 62.6333 162.452 62.82C162.266 63.9 161.966 64.7467 161.552 65.36C161.139 65.9733 160.652 66.42 160.092 66.7C159.532 66.9667 158.919 67.1333 158.252 67.2C157.599 67.2667 156.932 67.3 156.252 67.3ZM153.952 55.32L146.232 54.5H154.832C154.659 54.6067 154.499 54.7333 154.352 54.88C154.219 55.0133 154.086 55.16 153.952 55.32ZM153.032 57.3L144.732 56.42H153.332L153.032 57.3ZM152.652 59.24L144.172 58.34H152.792C152.779 58.38 152.766 58.42 152.752 58.46C152.752 58.5 152.752 58.54 152.752 58.58C152.739 58.6733 152.719 58.7733 152.692 58.88C152.679 58.9867 152.666 59.1067 152.652 59.24ZM152.812 61.16L144.352 60.26H152.652C152.666 60.4333 152.679 60.5933 152.692 60.74C152.719 60.8733 152.759 61.0133 152.812 61.16ZM155.452 63.08L144.872 62.18H153.492C153.932 62.6067 154.586 62.9067 155.452 63.08ZM151.712 64.98L144.532 64.1H152.012L151.712 64.98ZM151.072 66.92L144.192 66.04H151.372L151.072 66.92ZM169.989 67L171.609 57.7H168.869L169.449 54.5H178.749L178.169 57.7H175.409L173.789 67H169.989ZM168.649 55.4L160.189 54.5H168.809L168.649 55.4ZM168.329 57.32L159.849 56.42H168.469L168.329 57.32ZM170.729 59.24L162.249 58.34H170.889L170.729 59.24ZM170.389 61.16L161.909 60.26H170.549L170.389 61.16ZM170.049 63.08L161.569 62.18H170.209L170.049 63.08ZM169.709 65L161.229 64.1H169.869L169.709 65ZM169.369 66.94L160.889 66.04H169.529L169.369 66.94ZM182.06 67L184.26 54.5H188.06L185.86 67H182.06ZM183.48 55.4L175.02 54.5H183.64L183.48 55.4ZM183.16 57.32L174.68 56.42H183.3L183.16 57.32ZM182.82 59.24L174.34 58.34H182.98L182.82 59.24ZM182.48 61.16L174 60.26H182.64L182.48 61.16ZM182.14 63.08L173.66 62.18H182.3L182.14 63.08ZM181.8 65L173.32 64.1H181.96L181.8 65ZM181.46 66.94L172.98 66.04H181.62L181.46 66.94ZM196.919 67.3C195.185 67.3 193.965 66.9667 193.259 66.3C192.565 65.62 192.219 64.62 192.219 63.3C192.219 62.9267 192.245 62.5333 192.299 62.12C192.352 61.6933 192.419 61.24 192.499 60.76C192.752 59.3067 193.119 58.1 193.599 57.14C194.079 56.1667 194.765 55.4333 195.659 54.94C196.552 54.4467 197.739 54.2 199.219 54.2C199.512 54.2 199.859 54.22 200.259 54.26C200.659 54.3 201.045 54.36 201.419 54.44C201.805 54.52 202.099 54.6133 202.299 54.72L201.179 57.78C200.805 57.6867 200.405 57.62 199.979 57.58C199.552 57.5267 199.205 57.5 198.939 57.5C198.325 57.5 197.859 57.56 197.539 57.68C197.219 57.8 197.025 58.0733 196.959 58.5L196.039 63.74C196.305 63.7933 196.559 63.8333 196.799 63.86C197.052 63.8867 197.292 63.9 197.519 63.9C198.025 63.9 198.539 63.86 199.059 63.78C199.592 63.6867 200.065 63.5667 200.479 63.42L200.159 66.78C199.692 66.9667 199.199 67.1 198.679 67.18C198.172 67.26 197.585 67.3 196.919 67.3ZM194.259 55.16L188.139 54.5H195.159C194.999 54.5933 194.845 54.6933 194.699 54.8C194.552 54.9067 194.405 55.0267 194.259 55.16ZM192.859 57.22L185.379 56.42H193.259C193.192 56.5533 193.125 56.6867 193.059 56.82C192.992 56.94 192.925 57.0733 192.859 57.22ZM192.199 59.16L184.439 58.34H192.439L192.199 59.16ZM191.819 61.1L183.959 60.26H191.959L191.899 60.66C191.885 60.74 191.872 60.82 191.859 60.9C191.845 60.9667 191.832 61.0333 191.819 61.1ZM191.619 63.02L183.739 62.18H191.679C191.639 62.4733 191.619 62.7533 191.619 63.02ZM191.779 64.94L183.999 64.1H191.639C191.665 64.2467 191.685 64.3933 191.699 64.54C191.725 64.6733 191.752 64.8067 191.779 64.94ZM192.839 66.78L185.919 66.04H192.239C192.412 66.3467 192.612 66.5933 192.839 66.78ZM210.471 67.3C209.684 67.3 208.911 67.2533 208.151 67.16C207.404 67.08 206.678 66.9533 205.971 66.78L207.091 63.48C207.598 63.6133 208.144 63.7267 208.731 63.82C209.318 63.9 209.871 63.94 210.391 63.94C210.818 63.94 211.191 63.9333 211.511 63.92C211.831 63.8933 212.138 63.86 212.431 63.82L212.591 62.82L210.931 62.66C209.624 62.5267 208.718 62.2333 208.211 61.78C207.704 61.3133 207.451 60.68 207.451 59.88C207.451 59.52 207.491 59.12 207.571 58.68C207.784 57.5467 208.091 56.6533 208.491 56C208.904 55.3467 209.491 54.8867 210.251 54.62C211.011 54.34 212.018 54.2 213.271 54.2C214.004 54.2 214.724 54.24 215.431 54.32C216.138 54.4 216.818 54.5267 217.471 54.7L216.431 57.9C215.911 57.8067 215.418 57.7333 214.951 57.68C214.484 57.6267 213.964 57.6 213.391 57.6C213.084 57.6 212.824 57.6067 212.611 57.62C212.398 57.6333 212.138 57.66 211.831 57.7L211.671 58.68L213.011 58.82C213.971 58.9133 214.724 59.1 215.271 59.38C215.818 59.6467 216.204 59.9867 216.431 60.4C216.658 60.8 216.771 61.2667 216.771 61.8C216.771 61.96 216.758 62.1267 216.731 62.3C216.718 62.46 216.698 62.6333 216.671 62.82C216.484 63.9 216.184 64.7467 215.771 65.36C215.358 65.9733 214.871 66.42 214.311 66.7C213.751 66.9667 213.138 67.1333 212.471 67.2C211.818 67.2667 211.151 67.3 210.471 67.3ZM208.171 55.32L200.451 54.5H209.051C208.878 54.6067 208.718 54.7333 208.571 54.88C208.438 55.0133 208.304 55.16 208.171 55.32ZM207.251 57.3L198.951 56.42H207.551L207.251 57.3ZM206.871 59.24L198.391 58.34H207.011C206.998 58.38 206.984 58.42 206.971 58.46C206.971 58.5 206.971 58.54 206.971 58.58C206.958 58.6733 206.938 58.7733 206.911 58.88C206.898 58.9867 206.884 59.1067 206.871 59.24ZM207.031 61.16L198.571 60.26H206.871C206.884 60.4333 206.898 60.5933 206.911 60.74C206.938 60.8733 206.978 61.0133 207.031 61.16ZM209.671 63.08L199.091 62.18H207.711C208.151 62.6067 208.804 62.9067 209.671 63.08ZM205.931 64.98L198.751 64.1H206.231L205.931 64.98ZM205.291 66.92L198.411 66.04H205.591L205.291 66.92Z" fill="#FE4202"/>
<rect x="80" y="98" width="119" height="325" fill="#986DFF"/>
<rect x="160" y="207.116" width="78" height="215.884" fill="#9B9B9A"/>
<path d="M220 311.28C220 286.151 240.371 265.78 265.5 265.78C290.629 265.78 311 286.151 311 311.28V423H220V311.28Z" fill="#FFEE77"/>
<path fill-rule="evenodd" clip-rule="evenodd" d="M0 423H199.201C194.651 363.149 151.796 316.231 99.6005 316.231C47.4054 316.231 4.55018 363.149 0 423Z" fill="#FF936E"/>
<defs>
<radialGradient id="paint0_angular_1490_1110" cx="0" cy="0" r="1" gradientUnits="userSpaceOnUse" gradientTransform="translate(155.5 26.5) scale(91.5 22.5)">
<stop stop-color="#FE4202"/>
<stop offset="1" stop-color="#9B9B9A"/>
</radialGradient>
</defs>
</svg>
