<svg width="101" height="100" viewBox="0 0 101 100" fill="none" xmlns="http://www.w3.org/2000/svg">
<path d="M50.4993 91.9269C73.6551 91.9269 92.4264 73.1556 92.4264 49.9998C92.4264 26.8441 73.6551 8.07275 50.4993 8.07275C27.3436 8.07275 8.57227 26.8441 8.57227 49.9998C8.57227 73.1556 27.3436 91.9269 50.4993 91.9269Z" fill="#FE4202"/>
<path d="M14.4451 71.4132L16.209 69.4366C17.0476 68.5082 17.5267 67.2804 17.5267 66.0226V60.7517C17.5267 59.7635 18.3054 58.9848 19.2936 58.9848C19.9825 58.9848 20.5215 58.4457 20.5215 57.7569V55.99C20.5215 54.3429 19.1739 52.9952 17.5267 52.9952C15.8796 52.9952 14.5319 51.6476 14.5319 50.0004V48.4731C14.5319 47.6645 15.1908 47.0056 15.9994 47.0056C16.8379 47.0056 17.5567 47.6944 17.4968 48.533C17.4968 49.3416 18.1556 50.0004 18.9642 50.0004H20.7611C22.2884 50.0004 23.5163 48.7726 23.5163 47.2452V45.5082C23.5163 44.6697 24.1752 44.0109 25.0137 44.0109C25.8522 44.0109 26.5111 44.6697 26.5111 45.5082V48.3533C26.5111 49.2817 27.2598 50.0004 28.1582 50.0004C28.9069 50.0004 29.5059 50.5994 29.5059 51.3481V54.1332C29.5059 55.1515 30.3444 55.99 31.3627 55.99C32.0814 55.99 32.7103 55.6007 33.0397 54.9718L37.8913 45.2387C38.2806 44.49 39.0592 44.0109 39.8978 44.0109C40.8561 44.0109 41.6947 44.6398 42.0241 45.5382L44.1204 51.7973C44.36 52.5161 45.0189 52.9952 45.7676 52.9952C46.7259 52.9952 47.5046 52.2166 47.5046 51.2583V45.5082C47.5046 44.6697 48.1634 44.0109 49.002 44.0109C49.8405 44.0109 50.4994 43.352 50.4994 42.5135V38.201C50.4994 36.464 51.9069 35.0265 53.6738 35.0265C55.2311 35.0265 56.4889 33.7687 56.459 32.2114V31.852C56.459 30.2947 55.2012 29.0369 53.6439 29.0369H51.9668C51.1283 29.0369 50.4694 28.378 50.4694 27.5395C50.4694 26.701 51.1283 26.0421 51.9668 26.0421H56.8483C58.2858 26.0421 59.4538 27.2101 59.4538 28.6476V30.5343C59.4538 31.3728 60.1126 32.0317 60.9512 32.0317C61.7897 32.0317 62.4486 31.3728 62.4486 30.5343V28.7973C62.4486 25.6228 65.0241 23.0473 68.1986 23.0473H72.9303C73.7689 23.0473 74.4277 22.3885 74.4277 21.5499C74.4277 20.7114 73.7689 20.0525 72.9303 20.0525H64.2454C63.2572 20.0525 62.4486 19.2439 62.4486 18.2556C62.4486 17.5968 61.9095 17.0577 61.2507 17.0577H47.6842C45.6178 17.0577 43.5814 16.4288 41.8744 15.2608L35.3769 10.8833C19.6943 16.9502 8.57227 32.1763 8.57227 50.0001C8.57227 57.8231 10.7148 65.1457 14.4451 71.4132ZM56.4889 57.9064V55.1212C56.4889 53.9533 57.4173 52.9949 58.6152 52.935C59.1842 52.935 59.7233 53.1746 60.1126 53.5639L64.8744 58.3257C65.2936 58.715 65.5033 59.254 65.5033 59.823C65.5033 60.991 64.5449 61.9494 63.377 61.9494H62.9577C62.6582 61.9494 62.3587 61.8895 62.0892 61.7697L57.7467 59.823C56.9681 59.4936 56.4889 58.7449 56.4889 57.9064ZM48.9121 55.9897H46.0671C45.1986 55.9897 44.4798 56.7085 44.4798 57.577V60.422C44.4798 61.2905 45.1986 62.0093 46.0671 62.0093H48.9121C49.7806 62.0093 50.4994 61.2905 50.4994 60.422V57.577C50.4994 56.7085 49.7806 55.9897 48.9121 55.9897ZM38.5202 60.4819C38.5202 61.3204 39.179 61.9793 40.0176 61.9793C40.8262 61.9793 41.515 61.3204 41.515 60.4819V57.4871C41.515 56.6486 40.8561 55.9897 40.0176 55.9897C39.179 55.9897 38.5202 56.6486 38.5202 57.4871V60.4819ZM58.8548 35.6551L54.0931 40.4168C53.7038 40.8061 53.4642 41.3452 53.4642 41.9142C53.4642 43.0822 54.4225 44.0405 55.5905 44.0405C56.1595 44.0405 56.6986 43.8309 57.0879 43.4116L61.8496 38.6499C62.2389 38.2606 62.4785 37.7215 62.4785 37.1525C62.4785 35.9845 61.5202 35.0262 60.3522 35.0262C59.7832 35.0262 59.2441 35.2358 58.8548 35.6551ZM69.0671 79.3491L73.8288 74.5874C74.2181 74.1681 74.7572 73.9585 75.3262 73.9585C76.4941 73.9585 77.4525 74.9168 77.4525 76.0848C77.4525 76.6538 77.2129 77.1928 76.8236 77.5822L72.0619 82.3439C71.6725 82.7632 71.1335 82.9728 70.5645 82.9728C69.3965 82.9728 68.4382 82.0145 68.4382 80.8465C68.4382 80.2775 68.6777 79.7384 69.0671 79.3491ZM47.5046 70.1853V73.8689C47.5046 75.576 48.8822 76.9536 50.5892 76.9536H55.1712C55.9798 76.9536 56.7585 77.283 57.3275 77.852L58.5553 79.0799C59.1244 79.6489 59.903 79.9783 60.7116 79.9783H63.5267C64.6947 79.9783 65.7728 79.3194 66.2819 78.2713L68.1087 74.6476C68.3184 74.2283 68.4382 73.7491 68.4382 73.27V69.9158C68.4382 68.7478 67.7793 67.6697 66.7311 67.1606L63.1074 65.3338C62.6882 65.1241 62.209 65.0043 61.7298 65.0043H56.9681C56.6387 65.0043 56.3092 65.0642 55.9798 65.1541L49.571 67.2804C48.3431 67.6997 47.5046 68.8676 47.5046 70.1853Z" fill="white"/>
<g clip-path="url(#clip0_1490_1080)">
<path d="M16.4326 33.099L21.3228 31.8548L40.1451 26.7055C42.3968 26.0921 44.8062 26.601 46.6178 28.0723L50.1642 30.955C50.551 31.2703 50.6091 31.8395 50.2939 32.2264C50.2019 32.3393 50.084 32.4283 49.9502 32.4858L31.7395 40.3168L28.419 41.707" fill="#9B9B9A"/>
<path d="M24.1084 45.3268L22.5694 51.5373L18.5871 70.9802C18.4869 71.4692 18.0094 71.7843 17.5205 71.6843C17.3777 71.655 17.2443 71.5918 17.1314 71.4998L13.5854 68.6125C11.7767 67.1373 10.7898 64.8809 10.9345 62.5513L12.1636 43.066L12.4219 37.6661L24.1084 45.3268Z" fill="#9B9B9A"/>
<path d="M49.2846 53.3558L41.8781 57.4898C41.6703 57.606 41.5168 57.7992 41.4508 58.0278L39.071 66.2656L35.1411 63.0251L35.2145 57.6116C35.2181 57.3357 35.0956 57.0733 34.8817 56.8989L6.34012 33.6637C5.30899 32.6748 4.88774 31.2087 5.23653 29.8233L5.32383 29.2829C5.42682 28.6395 5.86184 28.0983 6.46803 27.8594L6.97391 27.6632C8.23964 27.0464 9.74205 27.1765 10.883 28.0015L39.4766 51.2477C39.6946 51.425 39.9827 51.4909 40.2562 51.4259L45.4403 50.1902L49.2846 53.3558Z" fill="#D0CFCE"/>
<path d="M12.952 44.7961L11.8288 62.6C11.7 64.6387 12.5637 66.6141 14.1478 67.904L17.6937 70.7913L21.6511 51.469" stroke="black" stroke-linecap="round" stroke-linejoin="round"/>
<path d="M31.6085 39.3595L49.5844 31.6307L46.0385 28.7433C44.4543 27.4535 42.3449 27.008 40.3745 27.5472L23.1675 32.255" stroke="black" stroke-linecap="round" stroke-linejoin="round"/>
<path d="M4.34542 29.6767L4.43359 29.1363C4.58955 28.1779 5.2384 27.3723 6.14148 27.0156L6.64734 26.8193C8.2149 26.0678 10.071 26.2543 11.4579 27.3025L40.0484 50.5453L45.6698 49.2049L50.8811 53.4969L42.3192 58.2797L39.5573 67.8339L34.2292 63.4485L34.3091 57.601L5.76734 34.3649C4.47192 33.1797 3.92668 31.3819 4.34542 29.6767Z" stroke="black" stroke-linejoin="round"/>
</g>
<defs>
<clipPath id="clip0_1490_1080">
<rect width="50" height="50" fill="white" transform="matrix(-0.9948 0.10185 0.10185 0.9948 50.8242 19.584)"/>
</clipPath>
</defs>
</svg>
