<svg width="38" height="38" viewBox="0 0 38 38" fill="none" xmlns="http://www.w3.org/2000/svg">
<rect x="1.5" y="1.5" width="35" height="35" stroke="white" stroke-width="3"/>
<path fill-rule="evenodd" clip-rule="evenodd" d="M24.4286 19.5714V21H25.5714V19.5714H27V18.4286H25.5714V17H24.4286V18.4286H23V19.5714H24.4286Z" fill="white"/>
<path fill-rule="evenodd" clip-rule="evenodd" d="M17.1253 18.616C17.0677 18.6182 17.01 18.6192 16.9524 18.619C14.6766 18.619 12.7619 16.9505 12.7619 14.8095C12.7619 12.6686 14.6766 11 16.9524 11H23.0476L21.9048 12.5238H20.307C20.8454 13.164 21.1413 13.9731 21.1429 14.8095C21.1429 15.4381 21.011 15.9265 20.8038 16.3333C20.768 16.4039 20.7293 16.4731 20.688 16.5406C20.48 16.9101 20.208 17.2438 19.8865 17.5295C19.507 17.9562 19.2381 18.3272 19.2381 19C19.2381 19.243 19.3333 19.4107 19.533 19.5958C19.6396 19.6949 19.7676 19.7909 19.923 19.9029L20.0145 19.9676C20.1425 20.059 20.285 20.1611 20.4259 20.2724C20.7825 20.552 21.1596 20.9124 21.4438 21.4457C21.728 21.9806 21.9048 22.6632 21.9048 23.5714C21.9048 24.053 21.7646 24.5025 21.5215 24.9048C21.2579 25.3444 20.8777 25.7276 20.4366 26.0385C19.587 26.6343 18.4625 27 17.3333 27C17.2747 27 17.2175 26.9992 17.1596 26.997C17.091 26.9992 17.0225 27 16.9524 27C15.6251 27 14.4069 26.6419 13.5086 26.043C12.6133 25.4465 12 24.581 12 23.5714C12 22.5627 12.6133 21.6964 13.5086 21.099C14.4069 20.501 15.6251 20.1429 16.9524 20.1429C17.0217 20.1429 17.091 20.1436 17.1596 20.1459H17.1627C17.0284 19.9131 16.956 19.6497 16.9524 19.381C16.9524 19.1067 17.0126 18.8507 17.1253 18.616ZM21.1429 23.5714C21.1429 23.2491 21.0469 22.9314 20.8686 22.6305C20.6705 22.3029 20.3695 21.9981 19.9733 21.7337C19.2617 21.2583 18.2743 20.9436 17.1619 20.9078C15.3448 20.9787 14.2857 22.1695 14.2857 23.5714C14.2857 24.9733 15.3455 26.1642 17.1611 26.235C18.2735 26.1992 19.2617 25.8846 19.9733 25.4091C20.3695 25.1455 20.6712 24.84 20.8686 24.5124C21.0469 24.2122 21.1429 23.8937 21.1429 23.5714ZM15.1794 12.9543C14.9493 13.5737 14.896 14.389 15.0987 15.2476C15.3013 16.1055 15.7135 16.811 16.1966 17.2621C16.6819 17.7147 17.2015 17.8823 17.6526 17.7756C18.1044 17.669 18.4945 17.2865 18.7253 16.6648C18.9562 16.0453 19.0088 15.2301 18.8061 14.3714C18.6034 13.5135 18.1912 12.808 17.709 12.357C17.2229 11.9044 16.7032 11.7368 16.2522 11.8434C15.8004 11.9501 15.411 12.3318 15.1794 12.9543Z" fill="white"/>
</svg>
