<svg width="38" height="38" viewBox="0 0 38 38" fill="none" xmlns="http://www.w3.org/2000/svg">
<rect x="1.5" y="1.5" width="35" height="35" stroke="white" stroke-width="3"/>
<path d="M28.962 11.1104C27.9639 11.5995 26.9857 11.7981 25.9677 12.0985C24.8488 10.8359 23.19 10.766 21.596 11.3629C20.002 11.9598 18.958 13.419 18.981 15.0928V16.0909C15.7422 16.1737 12.8577 14.6986 10.9962 12.0985C10.9962 12.0985 6.82215 19.5174 14.9886 23.0776C13.1202 24.3222 11.2567 25.1616 9 25.0738C12.3017 26.8734 15.8999 27.4922 19.0149 26.5879C22.5881 25.5499 25.5245 22.872 26.6514 18.8606C26.9875 17.6406 27.1544 16.3802 27.1474 15.1148C27.1474 14.8662 28.6546 12.349 28.962 11.1104Z" fill="white" stroke="white" stroke-linecap="round" stroke-linejoin="round"/>
</svg>
