<svg width="24" height="24" viewBox="0 0 24 24" fill="none" xmlns="http://www.w3.org/2000/svg">
<rect x="0.5" y="0.5" width="23" height="23" rx="11.5" stroke="#FE4202"/>
<path d="M6.85938 6.34375C7.21354 6.39583 7.52604 6.43229 7.79688 6.45312C8.07812 6.47396 8.3125 6.49479 8.5 6.51562C8.71875 6.53646 8.90625 6.54688 9.0625 6.54688H9.67188C10.0781 6.54688 10.75 6.53125 11.6875 6.5C11.4583 6.57292 11.2656 6.67708 11.1094 6.8125C10.9635 6.94792 10.8438 7.08854 10.75 7.23438C10.6354 7.40104 10.5521 7.57292 10.5 7.75C10.4375 7.96875 10.3802 8.26042 10.3281 8.625C10.276 8.94792 10.224 9.36979 10.1719 9.89062C10.1302 10.4115 10.0885 11.0625 10.0469 11.8438C10.4948 11.3333 10.8854 10.8802 11.2188 10.4844C11.5625 10.0885 11.8594 9.73958 12.1094 9.4375C12.3594 9.13542 12.5677 8.875 12.7344 8.65625C12.9115 8.4375 13.0573 8.25 13.1719 8.09375C13.4427 7.73958 13.599 7.5 13.6406 7.375C13.651 7.30208 13.6458 7.21354 13.625 7.10938C13.6042 7.02604 13.5729 6.92708 13.5312 6.8125C13.4896 6.6875 13.4271 6.55208 13.3438 6.40625C13.7604 6.42708 14.1146 6.44271 14.4062 6.45312C14.7083 6.46354 14.9583 6.47396 15.1562 6.48438C15.3854 6.49479 15.5729 6.5 15.7188 6.5H16.375C16.6146 6.5 16.9271 6.5 17.3125 6.5C17.6979 6.48958 18.1823 6.47917 18.7656 6.46875C18.3802 6.5625 18.0156 6.6875 17.6719 6.84375C17.3281 7 17.0208 7.15104 16.75 7.29688C16.4375 7.47396 16.1458 7.65625 15.875 7.84375C15.6042 8.05208 15.3021 8.29688 14.9688 8.57812C14.6875 8.81771 14.3594 9.11458 13.9844 9.46875C13.6094 9.8125 13.2031 10.2135 12.7656 10.6719C13.2344 11.5885 13.6406 12.3438 13.9844 12.9375C14.3385 13.5208 14.6354 13.9896 14.875 14.3438C15.1458 14.7604 15.375 15.0781 15.5625 15.2969C15.75 15.4948 15.9688 15.6979 16.2188 15.9062C16.4271 16.0833 16.6875 16.2812 17 16.5C17.3125 16.7083 17.6719 16.9115 18.0781 17.1094L13.625 17.3281C13.6875 17.2448 13.724 17.1458 13.7344 17.0312C13.7552 16.9062 13.7656 16.7917 13.7656 16.6875C13.7656 16.5729 13.7552 16.4479 13.7344 16.3125C13.6927 16.1458 13.5833 15.875 13.4062 15.5C13.2604 15.1771 13.0365 14.724 12.7344 14.1406C12.4323 13.5469 12.0156 12.7656 11.4844 11.7969L10.1562 13.1875C10.1042 13.5208 10.0781 13.8229 10.0781 14.0938C10.0781 14.3646 10.0885 14.5885 10.1094 14.7656C10.1406 14.9844 10.1823 15.1719 10.2344 15.3281C10.2969 15.4844 10.3854 15.6615 10.5 15.8594C10.5938 16.0365 10.7188 16.2448 10.875 16.4844C11.0312 16.724 11.2292 16.9896 11.4688 17.2812C11.2292 17.2188 10.9896 17.1771 10.75 17.1562C10.5104 17.125 10.2917 17.1042 10.0938 17.0938C9.86458 17.0833 9.64583 17.0885 9.4375 17.1094C9.21875 17.1302 8.96354 17.1615 8.67188 17.2031C8.42188 17.2448 8.11458 17.2969 7.75 17.3594C7.38542 17.4219 6.96875 17.5 6.5 17.5938C6.72917 17.4583 6.91146 17.3125 7.04688 17.1562C7.18229 17 7.29167 16.849 7.375 16.7031C7.46875 16.5365 7.53125 16.375 7.5625 16.2188C7.58333 16.0833 7.59896 15.7917 7.60938 15.3438C7.63021 14.8958 7.64062 14.375 7.64062 13.7812C7.65104 13.1771 7.65104 12.5417 7.64062 11.875C7.63021 11.2083 7.61979 10.5833 7.60938 10C7.59896 9.41667 7.58333 8.92188 7.5625 8.51562C7.55208 8.09896 7.54167 7.84375 7.53125 7.75C7.5 7.60417 7.45833 7.44792 7.40625 7.28125C7.35417 7.13542 7.28125 6.98438 7.1875 6.82812C7.10417 6.66146 6.99479 6.5 6.85938 6.34375Z" fill="#FE4202"/>
</svg>
