<svg width="33" height="27" viewBox="0 0 33 27" fill="none" xmlns="http://www.w3.org/2000/svg">
<g clip-path="url(#clip0_918_283)">
<path d="M21.6553 8.79004H24.3219C24.7219 8.79004 25.1219 9.00669 25.3886 9.22336L27.6553 12.04L30.7219 12.9067C31.2553 13.015 31.6553 13.4484 31.6553 13.8817V18.54C31.6553 19.0817 31.1219 19.6234 30.3219 19.6234H26.3378" stroke="white" stroke-width="1.5" stroke-miterlimit="10" stroke-linecap="round" stroke-linejoin="round"/>
<path d="M23.6549 21.7904C25.1277 21.7904 26.3216 20.8203 26.3216 19.6237C26.3216 18.427 25.1277 17.457 23.6549 17.457C22.1821 17.457 20.9883 18.427 20.9883 19.6237C20.9883 20.8203 22.1821 21.7904 23.6549 21.7904Z" stroke="white" stroke-width="1.5" stroke-miterlimit="10" stroke-linecap="round" stroke-linejoin="round"/>
<path d="M21.6553 18.2053V6.62337C21.6553 5.97337 21.1219 5.54004 20.3219 5.54004H2.98861C2.18861 5.54004 1.65527 5.97337 1.65527 6.62337V18.54C1.65527 19.0817 2.18861 19.6234 2.98861 19.6234H4.98493M20.9809 19.6234H15.6519" stroke="white" stroke-width="1.5" stroke-miterlimit="10" stroke-linecap="round" stroke-linejoin="round"/>
<path d="M7.65495 21.7904C9.12771 21.7904 10.3216 20.8203 10.3216 19.6237C10.3216 18.427 9.12771 17.457 7.65495 17.457C6.18219 17.457 4.98828 18.427 4.98828 19.6237C4.98828 20.8203 6.18219 21.7904 7.65495 21.7904Z" stroke="white" stroke-width="1.5" stroke-miterlimit="10" stroke-linecap="round" stroke-linejoin="round"/>
<path d="M12.9889 21.7904C14.4617 21.7904 15.6556 20.8203 15.6556 19.6237C15.6556 18.427 14.4617 17.457 12.9889 17.457C11.5162 17.457 10.3223 18.427 10.3223 19.6237C10.3223 20.8203 11.5162 21.7904 12.9889 21.7904Z" stroke="white" stroke-width="1.5" stroke-miterlimit="10" stroke-linecap="round" stroke-linejoin="round"/>
<path d="M7.65527 5.54004V13.1234" stroke="white" stroke-width="1.5" stroke-miterlimit="10" stroke-linecap="round" stroke-linejoin="round"/>
<path d="M14.3223 5.54004V13.1234" stroke="white" stroke-width="1.5" stroke-miterlimit="10" stroke-linecap="round" stroke-linejoin="round"/>
</g>
<defs>
<clipPath id="clip0_918_283">
<rect width="32" height="26" fill="white" transform="translate(0.655273 0.665039)"/>
</clipPath>
</defs>
</svg>
